<svg version="1.1" viewBox="0.0 0.0 1719.0 816.0" fill="none" stroke="none" stroke-linecap="square" stroke-miterlimit="10" width="1719" height="816" xmlns:xlink="http://www.w3.org/1999/xlink" xmlns="http://www.w3.org/2000/svg"><path fill="#ffffff" d="M0 0L1719.0 0L1719.0 816.0L0 816.0L0 0Z" fill-rule="nonzero"/><path stroke="#333333" stroke-width="1.0" stroke-linecap="butt" d="M159.5 172.5L159.5 676.5" fill-rule="nonzero"/><path stroke="#cccccc" stroke-width="1.0" stroke-linecap="butt" d="M463.5 172.5L463.5 676.5" fill-rule="nonzero"/><path stroke="#cccccc" stroke-width="1.0" stroke-linecap="butt" d="M767.5 172.5L767.5 676.5" fill-rule="nonzero"/><path stroke="#cccccc" stroke-width="1.0" stroke-linecap="butt" d="M1070.5 172.5L1070.5 676.5" fill-rule="nonzero"/><path stroke="#cccccc" stroke-width="1.0" stroke-linecap="butt" d="M1374.5 172.5L1374.5 676.5" fill-rule="nonzero"/><path stroke="#cccccc" stroke-width="1.0" stroke-linecap="butt" d="M1678.5 172.5L1678.5 676.5" fill-rule="nonzero"/><path stroke="#333333" stroke-width="1.0" stroke-linecap="butt" d="M159.5 676.5L1678.5 676.5" fill-rule="nonzero"/><path stroke="#cccccc" stroke-width="1.0" stroke-linecap="butt" d="M159.5 550.5L1678.5 550.5" fill-rule="nonzero"/><path stroke="#cccccc" stroke-width="1.0" stroke-linecap="butt" d="M159.5 424.5L1678.5 424.5" fill-rule="nonzero"/><path stroke="#cccccc" stroke-width="1.0" stroke-linecap="butt" d="M159.5 298.5L1678.5 298.5" fill-rule="nonzero"/><path stroke="#cccccc" stroke-width="1.0" stroke-linecap="butt" d="M159.5 172.5L1678.5 172.5" fill-rule="nonzero"/><clipPath id="id_0"><path d="M159.8 172.2L1678.2 172.2L1678.2 676.2L159.8 676.2L159.8 172.2Z" clip-rule="nonzero"/></clipPath><path stroke="#4285f4" stroke-width="2.0" stroke-linecap="butt" clip-path="url(#id_0)" d="M159.8 674.0782L311.64 673.6145L463.48 673.00464L615.32 672.28394L767.16 671.4977L919.0 670.6661L1070.84 669.6455L1222.68 668.1839L1374.52 649.6266L1526.36 564.942L1678.2 219.7902" fill-rule="nonzero"/><path stroke="#ea4335" stroke-width="2.0" stroke-linecap="butt" clip-path="url(#id_0)" d="M159.8 674.00507L311.64 673.8413L463.48 673.6447L615.32 673.4532L767.16 673.2516L919.0 673.0475L1070.84 672.7728L1222.68 672.14026L1374.52 663.9931L1526.36 627.9672L1678.2 481.0764" fill-rule="nonzero"/><path fill="#4285f4" clip-path="url(#id_0)" d="M159.8 674.0782C159.8 674.0782 159.8 674.0782 159.8 674.0782C159.8 674.0782 159.8 674.0782 159.8 674.0782C159.8 674.0782 159.8 674.0782 159.8 674.0782C159.8 674.0782 159.8 674.0782 159.8 674.0782Z" fill-rule="nonzero"/><path fill="#4285f4" clip-path="url(#id_0)" d="M311.64 673.6145C311.64 673.6145 311.64 673.6145 311.64 673.6145C311.64 673.6145 311.64 673.6145 311.64 673.6145C311.64 673.6145 311.64 673.6145 311.64 673.6145C311.64 673.6145 311.64 673.6145 311.64 673.6145Z" fill-rule="nonzero"/><path fill="#4285f4" clip-path="url(#id_0)" d="M463.48 673.00464C463.48 673.00464 463.48 673.00464 463.48 673.00464C463.48 673.00464 463.48 673.00464 463.48 673.00464C463.48 673.00464 463.48 673.00464 463.48 673.00464C463.48 673.00464 463.48 673.00464 463.48 673.00464Z" fill-rule="nonzero"/><path fill="#4285f4" clip-path="url(#id_0)" d="M615.32 672.28394C615.32 672.28394 615.32 672.28394 615.32 672.28394C615.32 672.28394 615.32 672.28394 615.32 672.28394C615.32 672.28394 615.32 672.28394 615.32 672.28394C615.32 672.28394 615.32 672.28394 615.32 672.28394Z" fill-rule="nonzero"/><path fill="#4285f4" clip-path="url(#id_0)" d="M767.16 671.4977C767.16 671.4977 767.16 671.4977 767.16 671.4977C767.16 671.4977 767.16 671.4977 767.16 671.4977C767.16 671.4977 767.16 671.4977 767.16 671.4977C767.16 671.4977 767.16 671.4977 767.16 671.4977Z" fill-rule="nonzero"/><path fill="#4285f4" clip-path="url(#id_0)" d="M919.0 670.6661C919.0 670.6661 919.0 670.6661 919.0 670.6661C919.0 670.6661 919.0 670.6661 919.0 670.6661C919.0 670.6661 919.0 670.6661 919.0 670.6661C919.0 670.6661 919.0 670.6661 919.0 670.6661Z" fill-rule="nonzero"/><path fill="#000000" clip-path="url(#id_0)" d="M1065.1831 663.98865L1070.84 667.6455L1076.4968 663.98865L1072.84 669.6455L1076.4968 675.3023L1070.84 671.6455L1065.1831 675.3023L1068.84 669.6455Z" fill-rule="nonzero"/><path fill="#4285f4" clip-path="url(#id_0)" d="M1222.68 668.1839C1222.68 668.1839 1222.68 668.1839 1222.68 668.1839C1222.68 668.1839 1222.68 668.1839 1222.68 668.1839C1222.68 668.1839 1222.68 668.1839 1222.68 668.1839C1222.68 668.1839 1222.68 668.1839 1222.68 668.1839Z" fill-rule="nonzero"/><path fill="#4285f4" clip-path="url(#id_0)" d="M1374.52 649.6266C1374.52 649.6266 1374.52 649.6266 1374.52 649.6266C1374.52 649.6266 1374.52 649.6266 1374.52 649.6266C1374.52 649.6266 1374.52 649.6266 1374.52 649.6266C1374.52 649.6266 1374.52 649.6266 1374.52 649.6266Z" fill-rule="nonzero"/><path fill="#4285f4" clip-path="url(#id_0)" d="M1526.36 564.942C1526.36 564.942 1526.36 564.942 1526.36 564.942C1526.36 564.942 1526.36 564.942 1526.36 564.942C1526.36 564.942 1526.36 564.942 1526.36 564.942C1526.36 564.942 1526.36 564.942 1526.36 564.942Z" fill-rule="nonzero"/><path fill="#4285f4" clip-path="url(#id_0)" d="M1678.2 219.7902C1678.2 219.7902 1678.2 219.7902 1678.2 219.7902C1678.2 219.7902 1678.2 219.7902 1678.2 219.7902C1678.2 219.7902 1678.2 219.7902 1678.2 219.7902C1678.2 219.7902 1678.2 219.7902 1678.2 219.7902Z" fill-rule="nonzero"/><path fill="#ea4335" clip-path="url(#id_0)" d="M159.8 674.00507C159.8 674.00507 159.8 674.00507 159.8 674.00507C159.8 674.00507 159.8 674.00507 159.8 674.00507C159.8 674.00507 159.8 674.00507 159.8 674.00507C159.8 674.00507 159.8 674.00507 159.8 674.00507Z" fill-rule="nonzero"/><path fill="#ea4335" clip-path="url(#id_0)" d="M311.64 673.8413C311.64 673.8413 311.64 673.8413 311.64 673.8413C311.64 673.8413 311.64 673.8413 311.64 673.8413C311.64 673.8413 311.64 673.8413 311.64 673.8413C311.64 673.8413 311.64 673.8413 311.64 673.8413Z" fill-rule="nonzero"/><path fill="#ea4335" clip-path="url(#id_0)" d="M463.48 673.6447C463.48 673.6447 463.48 673.6447 463.48 673.6447C463.48 673.6447 463.48 673.6447 463.48 673.6447C463.48 673.6447 463.48 673.6447 463.48 673.6447C463.48 673.6447 463.48 673.6447 463.48 673.6447Z" fill-rule="nonzero"/><path fill="#ea4335" clip-path="url(#id_0)" d="M615.32 673.4532C615.32 673.4532 615.32 673.4532 615.32 673.4532C615.32 673.4532 615.32 673.4532 615.32 673.4532C615.32 673.4532 615.32 673.4532 615.32 673.4532C615.32 673.4532 615.32 673.4532 615.32 673.4532Z" fill-rule="nonzero"/><path fill="#ea4335" clip-path="url(#id_0)" d="M767.16 673.2516C767.16 673.2516 767.16 673.2516 767.16 673.2516C767.16 673.2516 767.16 673.2516 767.16 673.2516C767.16 673.2516 767.16 673.2516 767.16 673.2516C767.16 673.2516 767.16 673.2516 767.16 673.2516Z" fill-rule="nonzero"/><path fill="#ea4335" clip-path="url(#id_0)" d="M919.0 673.0475C919.0 673.0475 919.0 673.0475 919.0 673.0475C919.0 673.0475 919.0 673.0475 919.0 673.0475C919.0 673.0475 919.0 673.0475 919.0 673.0475C919.0 673.0475 919.0 673.0475 919.0 673.0475Z" fill-rule="nonzero"/><path fill="#000000" clip-path="url(#id_0)" d="M1065.1831 667.11597L1070.84 670.7728L1076.4968 667.11597L1072.84 672.7728L1076.4968 678.4296L1070.84 674.7728L1065.1831 678.4296L1068.84 672.7728Z" fill-rule="nonzero"/><path fill="#ea4335" clip-path="url(#id_0)" d="M1222.68 672.14026C1222.68 672.14026 1222.68 672.14026 1222.68 672.14026C1222.68 672.14026 1222.68 672.14026 1222.68 672.14026C1222.68 672.14026 1222.68 672.14026 1222.68 672.14026C1222.68 672.14026 1222.68 672.14026 1222.68 672.14026Z" fill-rule="nonzero"/><path fill="#ea4335" clip-path="url(#id_0)" d="M1374.52 663.9931C1374.52 663.9931 1374.52 663.9931 1374.52 663.9931C1374.52 663.9931 1374.52 663.9931 1374.52 663.9931C1374.52 663.9931 1374.52 663.9931 1374.52 663.9931C1374.52 663.9931 1374.52 663.9931 1374.52 663.9931Z" fill-rule="nonzero"/><path fill="#ea4335" clip-path="url(#id_0)" d="M1526.36 627.9672C1526.36 627.9672 1526.36 627.9672 1526.36 627.9672C1526.36 627.9672 1526.36 627.9672 1526.36 627.9672C1526.36 627.9672 1526.36 627.9672 1526.36 627.9672C1526.36 627.9672 1526.36 627.9672 1526.36 627.9672Z" fill-rule="nonzero"/><path fill="#ea4335" clip-path="url(#id_0)" d="M1678.2 481.0764C1678.2 481.0764 1678.2 481.0764 1678.2 481.0764C1678.2 481.0764 1678.2 481.0764 1678.2 481.0764C1678.2 481.0764 1678.2 481.0764 1678.2 481.0764C1678.2 481.0764 1678.2 481.0764 1678.2 481.0764Z" fill-rule="nonzero"/><path fill="#000000" d="M885.59375 769.2L883.3281 769.2L874.75 756.04376L874.75 769.2L872.4844 769.2L872.4844 752.1375L874.75 752.1375L883.3594 765.34064L883.3594 752.1375L885.59375 752.1375L885.59375 769.2ZM893.65625 762.84064L887.9375 762.84064L887.9375 761.0594L893.65625 761.0594L893.65625 762.84064ZM898.75 767.35626L906.8281 767.35626L906.8281 769.2L896.4844 769.2L896.4844 752.1375L898.75 752.1375L898.75 767.35626ZM914.40625 769.4344Q911.8281 769.4344 910.2031 767.7469Q908.59375 766.04376 908.59375 763.21564L908.59375 762.8094Q908.59375 760.91876 909.3125 759.45Q910.03125 757.96564 911.3281 757.1219Q912.625 756.27814 914.1406 756.27814Q916.6094 756.27814 917.96875 757.91876Q919.34375 759.54376 919.34375 762.575L919.34375 763.48126L910.7656 763.48126Q910.8125 765.35626 911.8594 766.5125Q912.90625 767.66876 914.5156 767.66876Q915.6719 767.66876 916.46875 767.2Q917.2656 766.73126 917.8594 765.95L919.1875 766.98126Q917.59375 769.4344 914.40625 769.4344ZM914.1406 758.0594Q912.8281 758.0594 911.9375 759.02814Q911.0469 759.98126 910.8281 761.7L917.1875 761.7L917.1875 761.52814Q917.09375 759.8875 916.2969 758.98126Q915.5 758.0594 914.1406 758.0594ZM924.1875 756.5125L924.2656 758.10626Q925.71875 756.27814 928.0625 756.27814Q932.0781 756.27814 932.1094 760.825L932.1094 769.2L929.9531 769.2L929.9531 760.8094Q929.9375 759.4344 929.3125 758.77814Q928.7031 758.1219 927.40625 758.1219Q926.34375 758.1219 925.5469 758.6844Q924.75 759.2469 924.3125 760.16876L924.3125 769.2L922.1406 769.2L922.1406 756.5125L924.1875 756.5125ZM934.625 762.7469Q934.625 759.79376 936.0 758.04376Q937.375 756.27814 939.625 756.27814Q941.9531 756.27814 943.25 757.91876L943.3594 756.5125L945.34375 756.5125L945.34375 768.8875Q945.34375 771.35626 943.875 772.77814Q942.4219 774.2 939.9531 774.2Q938.59375 774.2 937.28125 773.60626Q935.96875 773.02814 935.2656 771.9969L936.3906 770.7Q937.7969 772.41876 939.8125 772.41876Q941.3906 772.41876 942.2656 771.52814Q943.15625 770.6375 943.15625 769.02814L943.15625 767.9344Q941.8594 769.4344 939.6094 769.4344Q937.375 769.4344 936.0 767.6375Q934.625 765.84064 934.625 762.7469ZM936.8125 762.9969Q936.8125 765.1375 937.6875 766.3719Q938.5625 767.59064 940.1406 767.59064Q942.2031 767.59064 943.15625 765.73126L943.15625 759.9344Q942.15625 758.1219 940.1719 758.1219Q938.59375 758.1219 937.7031 759.35626Q936.8125 760.59064 936.8125 762.9969ZM951.0781 753.45L951.0781 756.5125L953.4531 756.5125L953.4531 758.2L951.0781 758.2L951.0781 766.0594Q951.0781 766.825 951.3906 767.2Q951.71875 767.575 952.4844 767.575Q952.8594 767.575 953.5156 767.4344L953.5156 769.2Q952.65625 769.4344 951.84375 769.4344Q950.3906 769.4344 949.65625 768.5594Q948.9219 767.66876 948.9219 766.0594L948.9219 758.2L946.6094 758.2L946.6094 756.5125L948.9219 756.5125L948.9219 753.45L951.0781 753.45ZM958.3125 758.0594Q959.75 756.27814 962.0625 756.27814Q966.0781 756.27814 966.1094 760.825L966.1094 769.2L963.9531 769.2L963.9531 760.8094Q963.9375 759.4344 963.3125 758.77814Q962.7031 758.1219 961.40625 758.1219Q960.34375 758.1219 959.5469 758.6844Q958.75 759.2469 958.3125 760.16876L958.3125 769.2L956.1406 769.2L956.1406 751.2L958.3125 751.2L958.3125 758.0594Z" fill-rule="nonzero"/><path fill="#000000" d="M56.89376 505.46564L56.89376 509.46564L63.80001 509.46564L63.80001 511.73126L46.73751 511.73126L46.73751 506.075Q46.73751 503.2 48.05001 501.65314Q49.36251 500.09064 51.86251 500.09064Q53.45626 500.09064 54.64376 500.95Q55.83126 501.8094 56.409386 503.35626L63.659386 499.34064L63.80001 499.34064L63.80001 501.7625L56.89376 505.46564ZM55.05001 509.46564L55.05001 506.0125Q55.05001 504.34064 54.190636 503.35626Q53.315636 502.35626 51.86251 502.35626Q50.284386 502.35626 49.440636 503.3094Q48.596886 504.2469 48.58126 506.02814L48.58126 509.46564L55.05001 509.46564ZM62.55001 489.23126Q64.034386 490.4969 64.034386 492.95Q64.034386 494.96564 62.86251 496.02814Q61.67501 497.09064 59.36251 497.10626L51.11251 497.10626L51.11251 494.9344L59.315636 494.9344Q62.190636 494.9344 62.190636 492.59064Q62.190636 490.10626 60.346886 489.29376L51.11251 489.29376L51.11251 487.1219L63.80001 487.1219L63.80001 489.1844L62.55001 489.23126ZM51.11251 482.0125L52.70626 481.9344Q50.878136 480.48126 50.878136 478.1375Q50.878136 474.1219 55.42501 474.09064L63.80001 474.09064L63.80001 476.2469L55.409386 476.2469Q54.034386 476.2625 53.378136 476.8875Q52.721886 477.4969 52.721886 478.79376Q52.721886 479.85626 53.284386 480.65314Q53.846886 481.45 54.76876 481.8875L63.80001 481.8875L63.80001 484.0594L51.11251 484.0594L51.11251 482.0125ZM48.05001 468.1219L51.11251 468.1219L51.11251 465.7469L52.80001 465.7469L52.80001 468.1219L60.659386 468.1219Q61.42501 468.1219 61.80001 467.8094Q62.17501 467.48126 62.17501 466.71564Q62.17501 466.34064 62.034386 465.6844L63.80001 465.6844Q64.034386 466.54376 64.034386 467.35626Q64.034386 468.8094 63.159386 469.54376Q62.26876 470.27814 60.659386 470.27814L52.80001 470.27814L52.80001 472.59064L51.11251 472.59064L51.11251 470.27814L48.05001 470.27814L48.05001 468.1219ZM63.80001 460.7L63.80001 462.8719L51.11251 462.8719L51.11251 460.7L63.80001 460.7ZM47.753136 463.04376Q47.221886 463.04376 46.86251 462.73126Q46.503136 462.40314 46.503136 461.77814Q46.503136 461.1375 46.86251 460.8094Q47.221886 460.48126 47.753136 460.48126Q48.284386 460.48126 48.64376 460.8094Q48.98751 461.1375 48.98751 461.77814Q48.98751 462.40314 48.64376 462.73126Q48.284386 463.04376 47.753136 463.04376ZM51.11251 455.0125L52.51876 454.96564Q50.878136 453.5594 50.878136 451.2Q50.878136 448.54376 52.92501 447.575Q52.003136 446.95 51.440636 445.9344Q50.878136 444.91876 50.878136 443.52814Q50.878136 439.35626 55.30001 439.29376L63.80001 439.29376L63.80001 441.46564L55.42501 441.46564Q54.065636 441.46564 53.39376 442.09064Q52.721886 442.7 52.721886 444.16876Q52.721886 445.3719 53.440636 446.16876Q54.159386 446.96564 55.378136 447.09064L63.80001 447.09064L63.80001 449.27814L55.48751 449.27814Q52.721886 449.27814 52.721886 451.98126Q52.721886 454.1219 54.534386 454.90314L63.80001 454.90314L63.80001 457.075L51.11251 457.075L51.11251 455.0125ZM64.034386 430.79376Q64.034386 433.3719 62.346886 434.9969Q60.64376 436.60626 57.815636 436.60626L57.409386 436.60626Q55.51876 436.60626 54.05001 435.8875Q52.565636 435.16876 51.721886 433.8719Q50.878136 432.575 50.878136 431.0594Q50.878136 428.59064 52.51876 427.23126Q54.14376 425.85626 57.17501 425.85626L58.08126 425.85626L58.08126 434.4344Q59.95626 434.3875 61.11251 433.34064Q62.26876 432.29376 62.26876 430.6844Q62.26876 429.52814 61.80001 428.73126Q61.33126 427.9344 60.55001 427.34064L61.58126 426.0125Q64.034386 427.60626 64.034386 430.79376ZM52.659386 431.0594Q52.659386 432.3719 53.628136 433.2625Q54.58126 434.15314 56.30001 434.3719L56.30001 428.0125L56.128136 428.0125Q54.48751 428.10626 53.58126 428.90314Q52.659386 429.7 52.659386 431.0594ZM56.878136 423.1375Q54.221886 423.1375 51.784386 422.4344Q49.346886 421.71564 47.36251 420.3094Q45.36251 418.90314 44.55001 417.40314L45.971886 416.95Q47.284386 418.66876 49.98751 419.7625Q52.67501 420.85626 56.01876 420.96564L57.01876 420.96564Q61.534386 420.96564 64.86251 419.325Q66.86251 418.325 67.98751 416.95L69.315636 417.40314Q68.440636 418.95 66.409386 420.3719Q62.409386 423.1375 56.878136 423.1375ZM51.11251 413.0125L52.51876 412.96564Q50.878136 411.5594 50.878136 409.2Q50.878136 406.54376 52.92501 405.575Q52.003136 404.95 51.440636 403.9344Q50.878136 402.91876 50.878136 401.52814Q50.878136 397.35626 55.30001 397.29376L63.80001 397.29376L63.80001 399.46564L55.42501 399.46564Q54.065636 399.46564 53.39376 400.09064Q52.721886 400.7 52.721886 402.16876Q52.721886 403.3719 53.440636 404.16876Q54.159386 404.96564 55.378136 405.09064L63.80001 405.09064L63.80001 407.27814L55.48751 407.27814Q52.721886 407.27814 52.721886 409.98126Q52.721886 412.1219 54.534386 412.90314L63.80001 412.90314L63.80001 415.075L51.11251 415.075L51.11251 413.0125ZM63.80001 391.7L63.80001 393.8719L51.11251 393.8719L51.11251 391.7L63.80001 391.7ZM47.753136 394.04376Q47.221886 394.04376 46.86251 393.73126Q46.503136 393.40314 46.503136 392.77814Q46.503136 392.1375 46.86251 391.8094Q47.221886 391.48126 47.753136 391.48126Q48.284386 391.48126 48.64376 391.8094Q48.98751 392.1375 48.98751 392.77814Q48.98751 393.40314 48.64376 393.73126Q48.284386 394.04376 47.753136 394.04376ZM51.11251 386.0125L52.70626 385.9344Q50.878136 384.48126 50.878136 382.1375Q50.878136 378.1219 55.42501 378.09064L63.80001 378.09064L63.80001 380.2469L55.409386 380.2469Q54.034386 380.2625 53.378136 380.8875Q52.721886 381.4969 52.721886 382.79376Q52.721886 383.85626 53.284386 384.65314Q53.846886 385.45 54.76876 385.8875L63.80001 385.8875L63.80001 388.0594L51.11251 388.0594L51.11251 386.0125ZM60.440636 367.66876Q59.55001 367.66876 59.065636 368.34064Q58.58126 368.9969 58.23751 370.65314Q57.878136 372.29376 57.39376 373.2625Q56.89376 374.23126 56.221886 374.7Q55.534386 375.15314 54.596886 375.15314Q53.034386 375.15314 51.95626 373.84064Q50.878136 372.5125 50.878136 370.46564Q50.878136 368.3094 52.003136 366.96564Q53.11251 365.6219 54.846886 365.6219L54.846886 367.8094Q53.95626 367.8094 53.315636 368.5594Q52.659386 369.3094 52.659386 370.46564Q52.659386 371.65314 53.17501 372.325Q53.690636 372.98126 54.534386 372.98126Q55.315636 372.98126 55.721886 372.3719Q56.11251 371.7469 56.471886 370.1219Q56.83126 368.4969 57.346886 367.4969Q57.846886 366.48126 58.565636 365.9969Q59.26876 365.5125 60.284386 365.5125Q61.98751 365.5125 63.01876 366.8719Q64.034386 368.23126 64.034386 370.3875Q64.034386 371.91876 63.503136 373.09064Q62.95626 374.2625 61.98751 374.9344Q61.01876 375.59064 59.89376 375.59064L59.89376 373.41876Q60.98751 373.35626 61.628136 372.54376Q62.26876 371.73126 62.26876 370.3875Q62.26876 369.16876 61.76876 368.41876Q61.26876 367.66876 60.440636 367.66876ZM56.98751 358.0594Q59.596886 358.0594 62.003136 358.7469Q64.39376 359.41876 66.42501 360.84064Q68.45626 362.2469 69.315636 363.79376L67.98751 364.2469Q66.596886 362.45 63.690636 361.35626Q60.76876 360.2625 57.221886 360.23126L56.846886 360.23126Q54.39376 360.23126 52.284386 360.7469Q50.159386 361.2625 48.48751 362.1844Q46.80001 363.10626 45.86251 364.2469L44.55001 363.79376Q45.39376 362.2469 47.409386 360.85626Q49.409386 359.45 51.83126 358.7625Q54.23751 358.0594 56.98751 358.0594Z" fill-rule="nonzero"/><path fill="#000000" d="M148.89375 677.1375Q148.89375 680.3094 147.81563 681.85626Q146.7375 683.40314 144.425 683.40314Q142.14375 683.40314 141.05 681.8875Q139.95625 680.3719 139.925 677.3719L139.925 674.96564Q139.925 671.825 141.00313 670.3094Q142.09688 668.77814 144.40938 668.77814Q146.70625 668.77814 147.78438 670.2625Q148.8625 671.73126 148.89375 674.79376L148.89375 677.1375ZM147.09688 674.66876Q147.09688 672.3719 146.44063 671.325Q145.8 670.2625 144.40938 670.2625Q143.01875 670.2625 142.37813 671.3094Q141.75313 672.35626 141.7375 674.52814L141.7375 677.41876Q141.7375 679.71564 142.39375 680.825Q143.06563 681.91876 144.425 681.91876Q145.76875 681.91876 146.40938 680.8875Q147.06563 679.85626 147.09688 677.6219L147.09688 674.66876Z" fill-rule="nonzero"/><path fill="#000000" d="M118.81563 550.075L119.53438 542.98126L126.81563 542.98126L126.81563 544.65314L121.06563 544.65314L120.64375 548.52814Q121.69063 547.91876 123.01875 547.91876Q124.95625 547.91876 126.09688 549.2Q127.2375 550.48126 127.2375 552.66876Q127.2375 554.8719 126.05 556.1375Q124.8625 557.40314 122.7375 557.40314Q120.84688 557.40314 119.65938 556.35626Q118.47188 555.3094 118.3 553.46564L120.01875 553.46564Q120.175 554.6844 120.87813 555.3094Q121.58125 555.91876 122.7375 555.91876Q124.00313 555.91876 124.72188 555.0594Q125.44063 554.2 125.44063 552.6844Q125.44063 551.2625 124.65938 550.40314Q123.87813 549.52814 122.59688 549.52814Q121.40938 549.52814 120.7375 550.04376L120.25313 550.4344L118.81563 550.075ZM137.89375 551.1375Q137.89375 554.3094 136.81563 555.85626Q135.7375 557.40314 133.425 557.40314Q131.14375 557.40314 130.05 555.8875Q128.95625 554.3719 128.925 551.3719L128.925 548.96564Q128.925 545.825 130.00313 544.3094Q131.09688 542.77814 133.40938 542.77814Q135.70625 542.77814 136.78438 544.2625Q137.8625 545.73126 137.89375 548.79376L137.89375 551.1375ZM136.09688 548.66876Q136.09688 546.3719 135.44063 545.325Q134.8 544.2625 133.40938 544.2625Q132.01875 544.2625 131.37813 545.3094Q130.75313 546.35626 130.7375 548.52814L130.7375 551.41876Q130.7375 553.71564 131.39375 554.825Q132.06563 555.91876 133.425 555.91876Q134.76875 555.91876 135.40938 554.8875Q136.06563 553.85626 136.09688 551.6219L136.09688 548.66876ZM148.89375 551.1375Q148.89375 554.3094 147.81563 555.85626Q146.7375 557.40314 144.425 557.40314Q142.14375 557.40314 141.05 555.8875Q139.95625 554.3719 139.925 551.3719L139.925 548.96564Q139.925 545.825 141.00313 544.3094Q142.09688 542.77814 144.40938 542.77814Q146.70625 542.77814 147.78438 544.2625Q148.8625 545.73126 148.89375 548.79376L148.89375 551.1375ZM147.09688 548.66876Q147.09688 546.3719 146.44063 545.325Q145.8 544.2625 144.40938 544.2625Q143.01875 544.2625 142.37813 545.3094Q141.75313 546.35626 141.7375 548.52814L141.7375 551.41876Q141.7375 553.71564 142.39375 554.825Q143.06563 555.91876 144.425 555.91876Q145.76875 555.91876 146.40938 554.8875Q147.06563 553.85626 147.09688 551.6219L147.09688 548.66876Z" fill-rule="nonzero"/><path fill="#000000" d="M112.925 431.2L111.09688 431.2L111.09688 419.15314L107.45625 420.4969L107.45625 418.85626L112.64375 416.91876L112.925 416.91876L112.925 431.2ZM126.89375 425.1375Q126.89375 428.3094 125.81563 429.85626Q124.7375 431.40314 122.425 431.40314Q120.14375 431.40314 119.05 429.8875Q117.95625 428.3719 117.925 425.3719L117.925 422.96564Q117.925 419.825 119.00313 418.3094Q120.09688 416.77814 122.40938 416.77814Q124.70625 416.77814 125.78438 418.2625Q126.8625 419.73126 126.89375 422.79376L126.89375 425.1375ZM125.09688 422.66876Q125.09688 420.3719 124.44063 419.325Q123.8 418.2625 122.40938 418.2625Q121.01875 418.2625 120.37813 419.3094Q119.75313 420.35626 119.7375 422.52814L119.7375 425.41876Q119.7375 427.71564 120.39375 428.825Q121.06563 429.91876 122.425 429.91876Q123.76875 429.91876 124.40938 428.8875Q125.06563 427.85626 125.09688 425.6219L125.09688 422.66876ZM137.89375 425.1375Q137.89375 428.3094 136.81563 429.85626Q135.7375 431.40314 133.425 431.40314Q131.14375 431.40314 130.05 429.8875Q128.95625 428.3719 128.925 425.3719L128.925 422.96564Q128.925 419.825 130.00313 418.3094Q131.09688 416.77814 133.40938 416.77814Q135.70625 416.77814 136.78438 418.2625Q137.8625 419.73126 137.89375 422.79376L137.89375 425.1375ZM136.09688 422.66876Q136.09688 420.3719 135.44063 419.325Q134.8 418.2625 133.40938 418.2625Q132.01875 418.2625 131.37813 419.3094Q130.75313 420.35626 130.7375 422.52814L130.7375 425.41876Q130.7375 427.71564 131.39375 428.825Q132.06563 429.91876 133.425 429.91876Q134.76875 429.91876 135.40938 428.8875Q136.06563 427.85626 136.09688 425.6219L136.09688 422.66876ZM148.89375 425.1375Q148.89375 428.3094 147.81563 429.85626Q146.7375 431.40314 144.425 431.40314Q142.14375 431.40314 141.05 429.8875Q139.95625 428.3719 139.925 425.3719L139.925 422.96564Q139.925 419.825 141.00313 418.3094Q142.09688 416.77814 144.40938 416.77814Q146.70625 416.77814 147.78438 418.2625Q148.8625 419.73126 148.89375 422.79376L148.89375 425.1375ZM147.09688 422.66876Q147.09688 420.3719 146.44063 419.325Q145.8 418.2625 144.40938 418.2625Q143.01875 418.2625 142.37813 419.3094Q141.75313 420.35626 141.7375 422.52814L141.7375 425.41876Q141.7375 427.71564 142.39375 428.825Q143.06563 429.91876 144.425 429.91876Q145.76875 429.91876 146.40938 428.8875Q147.06563 427.85626 147.09688 425.6219L147.09688 422.66876Z" fill-rule="nonzero"/><path fill="#000000" d="M112.925 305.2L111.09688 305.2L111.09688 293.15314L107.45625 294.4969L107.45625 292.85626L112.64375 290.91876L112.925 290.91876L112.925 305.2ZM118.81563 298.075L119.53438 290.98126L126.81563 290.98126L126.81563 292.65314L121.06563 292.65314L120.64375 296.52814Q121.69063 295.91876 123.01875 295.91876Q124.95625 295.91876 126.09688 297.2Q127.2375 298.48126 127.2375 300.66876Q127.2375 302.8719 126.05 304.1375Q124.8625 305.40314 122.7375 305.40314Q120.84688 305.40314 119.65938 304.35626Q118.47188 303.3094 118.3 301.46564L120.01875 301.46564Q120.175 302.6844 120.87813 303.3094Q121.58125 303.91876 122.7375 303.91876Q124.00313 303.91876 124.72188 303.0594Q125.44063 302.2 125.44063 300.6844Q125.44063 299.2625 124.65938 298.40314Q123.87813 297.52814 122.59688 297.52814Q121.40938 297.52814 120.7375 298.04376L120.25313 298.4344L118.81563 298.075ZM137.89375 299.1375Q137.89375 302.3094 136.81563 303.85626Q135.7375 305.40314 133.425 305.40314Q131.14375 305.40314 130.05 303.8875Q128.95625 302.3719 128.925 299.3719L128.925 296.96564Q128.925 293.825 130.00313 292.3094Q131.09688 290.77814 133.40938 290.77814Q135.70625 290.77814 136.78438 292.2625Q137.8625 293.73126 137.89375 296.79376L137.89375 299.1375ZM136.09688 296.66876Q136.09688 294.3719 135.44063 293.325Q134.8 292.2625 133.40938 292.2625Q132.01875 292.2625 131.37813 293.3094Q130.75313 294.35626 130.7375 296.52814L130.7375 299.41876Q130.7375 301.71564 131.39375 302.825Q132.06563 303.91876 133.425 303.91876Q134.76875 303.91876 135.40938 302.8875Q136.06563 301.85626 136.09688 299.6219L136.09688 296.66876ZM148.89375 299.1375Q148.89375 302.3094 147.81563 303.85626Q146.7375 305.40314 144.425 305.40314Q142.14375 305.40314 141.05 303.8875Q139.95625 302.3719 139.925 299.3719L139.925 296.96564Q139.925 293.825 141.00313 292.3094Q142.09688 290.77814 144.40938 290.77814Q146.70625 290.77814 147.78438 292.2625Q148.8625 293.73126 148.89375 296.79376L148.89375 299.1375ZM147.09688 296.66876Q147.09688 294.3719 146.44063 293.325Q145.8 292.2625 144.40938 292.2625Q143.01875 292.2625 142.37813 293.3094Q141.75313 294.35626 141.7375 296.52814L141.7375 299.41876Q141.7375 301.71564 142.39375 302.825Q143.06563 303.91876 144.425 303.91876Q145.76875 303.91876 146.40938 302.8875Q147.06563 301.85626 147.09688 299.6219L147.09688 296.66876Z" fill-rule="nonzero"/><path fill="#000000" d="M116.3 179.2L106.9875 179.2L106.9875 177.90312L111.90938 172.43437Q113.00313 171.18437 113.40938 170.41875Q113.83125 169.6375 113.83125 168.80937Q113.83125 167.7 113.15938 166.98125Q112.4875 166.2625 111.3625 166.2625Q110.00313 166.2625 109.25313 167.04375Q108.51875 167.80937 108.51875 169.16875L106.70625 169.16875Q106.70625 167.2 107.97188 165.99687Q109.2375 164.77812 111.3625 164.77812Q113.34688 164.77812 114.4875 165.825Q115.64375 166.87187 115.64375 168.59062Q115.64375 170.7 112.97188 173.59062L109.15938 177.73125L116.3 177.73125L116.3 179.2ZM126.89375 173.1375Q126.89375 176.30937 125.81563 177.85625Q124.7375 179.40312 122.425 179.40312Q120.14375 179.40312 119.05 177.8875Q117.95625 176.37187 117.925 173.37187L117.925 170.96562Q117.925 167.825 119.00313 166.30937Q120.09688 164.77812 122.40938 164.77812Q124.70625 164.77812 125.78438 166.2625Q126.8625 167.73125 126.89375 170.79375L126.89375 173.1375ZM125.09688 170.66875Q125.09688 168.37187 124.44063 167.325Q123.8 166.2625 122.40938 166.2625Q121.01875 166.2625 120.37813 167.30937Q119.75313 168.35625 119.7375 170.52812L119.7375 173.41875Q119.7375 175.71562 120.39375 176.825Q121.06563 177.91875 122.425 177.91875Q123.76875 177.91875 124.40938 176.8875Q125.06563 175.85625 125.09688 173.62187L125.09688 170.66875ZM137.89375 173.1375Q137.89375 176.30937 136.81563 177.85625Q135.7375 179.40312 133.425 179.40312Q131.14375 179.40312 130.05 177.8875Q128.95625 176.37187 128.925 173.37187L128.925 170.96562Q128.925 167.825 130.00313 166.30937Q131.09688 164.77812 133.40938 164.77812Q135.70625 164.77812 136.78438 166.2625Q137.8625 167.73125 137.89375 170.79375L137.89375 173.1375ZM136.09688 170.66875Q136.09688 168.37187 135.44063 167.325Q134.8 166.2625 133.40938 166.2625Q132.01875 166.2625 131.37813 167.30937Q130.75313 168.35625 130.7375 170.52812L130.7375 173.41875Q130.7375 175.71562 131.39375 176.825Q132.06563 177.91875 133.425 177.91875Q134.76875 177.91875 135.40938 176.8875Q136.06563 175.85625 136.09688 173.62187L136.09688 170.66875ZM148.89375 173.1375Q148.89375 176.30937 147.81563 177.85625Q146.7375 179.40312 144.425 179.40312Q142.14375 179.40312 141.05 177.8875Q139.95625 176.37187 139.925 173.37187L139.925 170.96562Q139.925 167.825 141.00313 166.30937Q142.09688 164.77812 144.40938 164.77812Q146.70625 164.77812 147.78438 166.2625Q148.8625 167.73125 148.89375 170.79375L148.89375 173.1375ZM147.09688 170.66875Q147.09688 168.37187 146.44063 167.325Q145.8 166.2625 144.40938 166.2625Q143.01875 166.2625 142.37813 167.30937Q141.75313 168.35625 141.7375 170.52812L141.7375 173.41875Q141.7375 175.71562 142.39375 176.825Q143.06563 177.91875 144.425 177.91875Q145.76875 177.91875 146.40938 176.8875Q147.06563 175.85625 147.09688 173.62187L147.09688 170.66875Z" fill-rule="nonzero"/><path fill="#000000" d="M164.39375 699.1375Q164.39375 702.3094 163.31563 703.85626Q162.2375 705.40314 159.925 705.40314Q157.64375 705.40314 156.55 703.8875Q155.45625 702.3719 155.425 699.3719L155.425 696.96564Q155.425 693.825 156.50313 692.3094Q157.59688 690.77814 159.90938 690.77814Q162.20625 690.77814 163.28438 692.2625Q164.3625 693.73126 164.39375 696.79376L164.39375 699.1375ZM162.59688 696.66876Q162.59688 694.3719 161.94063 693.325Q161.3 692.2625 159.90938 692.2625Q158.51875 692.2625 157.87813 693.3094Q157.25313 694.35626 157.2375 696.52814L157.2375 699.41876Q157.2375 701.71564 157.89375 702.825Q158.56563 703.91876 159.925 703.91876Q161.26875 703.91876 161.90938 702.8875Q162.56563 701.85626 162.59688 699.6219L162.59688 696.66876Z" fill-rule="nonzero"/><path fill="#000000" d="M468.48 705.2L459.1675 705.2L459.1675 703.90314L464.0894 698.4344Q465.18314 697.1844 465.5894 696.41876Q466.01126 695.6375 466.01126 694.8094Q466.01126 693.7 465.3394 692.98126Q464.6675 692.2625 463.5425 692.2625Q462.18314 692.2625 461.43314 693.04376Q460.69876 693.8094 460.69876 695.16876L458.88626 695.16876Q458.88626 693.2 460.1519 691.9969Q461.4175 690.77814 463.5425 690.77814Q465.5269 690.77814 466.6675 691.825Q467.82376 692.8719 467.82376 694.59064Q467.82376 696.7 465.1519 699.59064L461.3394 703.73126L468.48 703.73126L468.48 705.2Z" fill-rule="nonzero"/><path fill="#000000" d="M770.4725 700.41876L772.4412 700.41876L772.4412 701.90314L770.4725 701.90314L770.4725 705.2L768.66 705.2L768.66 701.90314L762.1756 701.90314L762.1756 700.84064L768.5506 690.98126L770.4725 690.98126L770.4725 700.41876ZM764.2225 700.41876L768.66 700.41876L768.66 693.45L768.4412 693.84064L764.2225 700.41876Z" fill-rule="nonzero"/><path fill="#000000" d="M1073.6056 690.96564L1073.6056 692.4969L1073.2775 692.4969Q1071.1681 692.54376 1069.9181 693.7625Q1068.6681 694.96564 1068.4806 697.16876Q1069.6056 695.8719 1071.5431 695.8719Q1073.4025 695.8719 1074.5118 697.1844Q1075.6212 698.4969 1075.6212 700.5594Q1075.6212 702.7625 1074.4181 704.09064Q1073.215 705.40314 1071.215 705.40314Q1069.1681 705.40314 1067.9025 703.84064Q1066.6368 702.2625 1066.6368 699.79376L1066.6368 699.09064Q1066.6368 695.16876 1068.3087 693.09064Q1069.9806 691.0125 1073.2931 690.96564L1073.6056 690.96564ZM1071.2462 697.3719Q1070.3087 697.3719 1069.5275 697.9344Q1068.7462 698.4969 1068.4493 699.325L1068.4493 699.9969Q1068.4493 701.7469 1069.2306 702.825Q1070.0275 703.90314 1071.215 703.90314Q1072.4337 703.90314 1073.1212 703.0125Q1073.8243 702.10626 1073.8243 700.65314Q1073.8243 699.1844 1073.1212 698.27814Q1072.4181 697.3719 1071.2462 697.3719Z" fill-rule="nonzero"/><path fill="#000000" d="M1378.8325 694.6844Q1378.8325 695.7625 1378.27 696.59064Q1377.7075 697.41876 1376.7388 697.8875Q1377.8638 698.35626 1378.5044 699.27814Q1379.1606 700.2 1379.1606 701.35626Q1379.1606 703.2 1377.9106 704.3094Q1376.6606 705.40314 1374.6294 705.40314Q1372.5825 705.40314 1371.3481 704.3094Q1370.1138 703.2 1370.1138 701.35626Q1370.1138 700.21564 1370.7388 699.29376Q1371.3794 698.35626 1372.4888 697.8719Q1371.5356 697.40314 1370.9888 696.575Q1370.4419 695.7469 1370.4419 694.6844Q1370.4419 692.8875 1371.5981 691.84064Q1372.7544 690.77814 1374.6294 690.77814Q1376.5044 690.77814 1377.6606 691.84064Q1378.8325 692.8875 1378.8325 694.6844ZM1377.3481 701.325Q1377.3481 700.1375 1376.5825 699.3875Q1375.8325 698.6219 1374.6138 698.6219Q1373.395 698.6219 1372.6606 699.3719Q1371.9263 700.10626 1371.9263 701.325Q1371.9263 702.52814 1372.645 703.23126Q1373.3638 703.91876 1374.6294 703.91876Q1375.9106 703.91876 1376.6294 703.23126Q1377.3481 702.52814 1377.3481 701.325ZM1374.6294 692.2625Q1373.5669 692.2625 1372.9106 692.9344Q1372.2544 693.59064 1372.2544 694.71564Q1372.2544 695.8094 1372.895 696.48126Q1373.5513 697.1375 1374.6294 697.1375Q1375.7231 697.1375 1376.3638 696.48126Q1377.02 695.8094 1377.02 694.73126Q1377.02 693.6375 1376.3481 692.95Q1375.6763 692.2625 1374.6294 692.2625Z" fill-rule="nonzero"/><path fill="#000000" d="M1674.325 705.2L1672.4968 705.2L1672.4968 693.15314L1668.8562 694.4969L1668.8562 692.85626L1674.0437 690.91876L1674.325 690.91876L1674.325 705.2ZM1688.2937 699.1375Q1688.2937 702.3094 1687.2156 703.85626Q1686.1375 705.40314 1683.825 705.40314Q1681.5437 705.40314 1680.45 703.8875Q1679.3562 702.3719 1679.325 699.3719L1679.325 696.96564Q1679.325 693.825 1680.4031 692.3094Q1681.4968 690.77814 1683.8093 690.77814Q1686.1062 690.77814 1687.1843 692.2625Q1688.2625 693.73126 1688.2937 696.79376L1688.2937 699.1375ZM1686.4968 696.66876Q1686.4968 694.3719 1685.8406 693.325Q1685.2 692.2625 1683.8093 692.2625Q1682.4187 692.2625 1681.7781 693.3094Q1681.1531 694.35626 1681.1375 696.52814L1681.1375 699.41876Q1681.1375 701.71564 1681.7937 702.825Q1682.4656 703.91876 1683.825 703.91876Q1685.1687 703.91876 1685.8093 702.8875Q1686.4656 701.85626 1686.4968 699.6219L1686.4968 696.66876Z" fill-rule="nonzero"/><path stroke="#4285f4" stroke-width="4.0" stroke-linecap="butt" d="M743.5 118.5L755.5 118.5" fill-rule="nonzero"/><path fill="#000000" d="M765.4844 127.0L765.4844 109.9375L771.0625 109.9375Q773.84375 109.9375 775.2344 111.09375Q776.6406 112.234375 776.6406 114.484375Q776.6406 115.671875 775.9531 116.59375Q775.28125 117.515625 774.1094 118.015625Q775.4844 118.40625 776.28125 119.5Q777.09375 120.578125 777.09375 122.078125Q777.09375 124.375 775.6094 125.6875Q774.125 127.0 771.40625 127.0L765.4844 127.0ZM767.7344 119.015625L767.7344 125.15625L771.4531 125.15625Q773.0156 125.15625 773.9219 124.34375Q774.8281 123.53125 774.8281 122.09375Q774.8281 119.015625 771.4844 119.015625L767.7344 119.015625ZM767.7344 117.21875L771.125 117.21875Q772.6094 117.21875 773.4844 116.484375Q774.375 115.734375 774.375 114.46875Q774.375 113.0625 773.5469 112.421875Q772.7344 111.78125 771.0625 111.78125L767.7344 111.78125L767.7344 117.21875ZM787.96875 127.0Q787.78125 126.625 787.6719 125.65625Q786.15625 127.234375 784.0625 127.234375Q782.1875 127.234375 780.9844 126.171875Q779.78125 125.109375 779.78125 123.484375Q779.78125 121.5 781.28125 120.40625Q782.7969 119.3125 785.5156 119.3125L787.625 119.3125L787.625 118.3125Q787.625 117.171875 786.9375 116.5Q786.2656 115.828125 784.9531 115.828125Q783.78125 115.828125 783.0 116.421875Q782.21875 117.0 782.21875 117.828125L780.03125 117.828125Q780.03125 116.890625 780.7031 116.0Q781.3906 115.109375 782.53125 114.59375Q783.6875 114.078125 785.0781 114.078125Q787.2656 114.078125 788.5 115.1875Q789.75 116.28125 789.7969 118.203125L789.7969 124.03125Q789.7969 125.78125 790.25 126.8125L790.25 127.0L787.96875 127.0ZM784.375 125.34375Q785.3906 125.34375 786.2969 124.828125Q787.21875 124.296875 787.625 123.453125L787.625 120.84375L785.9375 120.84375Q781.9531 120.84375 781.9531 123.171875Q781.9531 124.203125 782.625 124.78125Q783.3125 125.34375 784.375 125.34375ZM800.53125 123.640625Q800.53125 122.75 799.8594 122.265625Q799.2031 121.78125 797.5469 121.4375Q795.90625 121.078125 794.9375 120.59375Q793.96875 120.09375 793.5 119.421875Q793.0469 118.734375 793.0469 117.796875Q793.0469 116.234375 794.3594 115.15625Q795.6875 114.078125 797.7344 114.078125Q799.8906 114.078125 801.2344 115.203125Q802.5781 116.3125 802.5781 118.046875L800.3906 118.046875Q800.3906 117.15625 799.6406 116.515625Q798.8906 115.859375 797.7344 115.859375Q796.5469 115.859375 795.875 116.375Q795.21875 116.890625 795.21875 117.734375Q795.21875 118.515625 795.8281 118.921875Q796.4531 119.3125 798.0781 119.671875Q799.7031 120.03125 800.7031 120.546875Q801.71875 121.046875 802.2031 121.765625Q802.6875 122.46875 802.6875 123.484375Q802.6875 125.1875 801.3281 126.21875Q799.96875 127.234375 797.8125 127.234375Q796.28125 127.234375 795.1094 126.703125Q793.9375 126.15625 793.2656 125.1875Q792.6094 124.21875 792.6094 123.09375L794.78125 123.09375Q794.84375 124.1875 795.65625 124.828125Q796.46875 125.46875 797.8125 125.46875Q799.03125 125.46875 799.78125 124.96875Q800.53125 124.46875 800.53125 123.640625ZM810.40625 127.234375Q807.8281 127.234375 806.2031 125.546875Q804.59375 123.84375 804.59375 121.015625L804.59375 120.609375Q804.59375 118.71875 805.3125 117.25Q806.03125 115.765625 807.3281 114.921875Q808.625 114.078125 810.1406 114.078125Q812.6094 114.078125 813.96875 115.71875Q815.34375 117.34375 815.34375 120.375L815.34375 121.28125L806.7656 121.28125Q806.8125 123.15625 807.8594 124.3125Q808.90625 125.46875 810.5156 125.46875Q811.6719 125.46875 812.46875 125.0Q813.2656 124.53125 813.8594 123.75L815.1875 124.78125Q813.59375 127.234375 810.40625 127.234375ZM810.1406 115.859375Q808.8281 115.859375 807.9375 116.828125Q807.0469 117.78125 806.8281 119.5L813.1875 119.5L813.1875 119.328125Q813.09375 117.6875 812.2969 116.78125Q811.5 115.859375 810.1406 115.859375ZM820.5 127.0L818.3281 127.0L818.3281 109.0L820.5 109.0L820.5 127.0ZM826.5 127.0L824.3281 127.0L824.3281 114.3125L826.5 114.3125L826.5 127.0ZM824.15625 110.953125Q824.15625 110.421875 824.46875 110.0625Q824.7969 109.703125 825.4219 109.703125Q826.0625 109.703125 826.3906 110.0625Q826.71875 110.421875 826.71875 110.953125Q826.71875 111.484375 826.3906 111.84375Q826.0625 112.1875 825.4219 112.1875Q824.7969 112.1875 824.46875 111.84375Q824.15625 111.484375 824.15625 110.953125ZM832.1875 114.3125L832.2656 115.90625Q833.71875 114.078125 836.0625 114.078125Q840.0781 114.078125 840.1094 118.625L840.1094 127.0L837.9531 127.0L837.9531 118.609375Q837.9375 117.234375 837.3125 116.578125Q836.7031 115.921875 835.40625 115.921875Q834.34375 115.921875 833.5469 116.484375Q832.75 117.046875 832.3125 117.96875L832.3125 127.0L830.1406 127.0L830.1406 114.3125L832.1875 114.3125ZM848.40625 127.234375Q845.8281 127.234375 844.2031 125.546875Q842.59375 123.84375 842.59375 121.015625L842.59375 120.609375Q842.59375 118.71875 843.3125 117.25Q844.03125 115.765625 845.3281 114.921875Q846.625 114.078125 848.1406 114.078125Q850.6094 114.078125 851.96875 115.71875Q853.34375 117.34375 853.34375 120.375L853.34375 121.28125L844.7656 121.28125Q844.8125 123.15625 845.8594 124.3125Q846.90625 125.46875 848.5156 125.46875Q849.6719 125.46875 850.46875 125.0Q851.2656 124.53125 851.8594 123.75L853.1875 124.78125Q851.59375 127.234375 848.40625 127.234375ZM848.1406 115.859375Q846.8281 115.859375 845.9375 116.828125Q845.0469 117.78125 844.8281 119.5L851.1875 119.5L851.1875 119.328125Q851.09375 117.6875 850.2969 116.78125Q849.5 115.859375 848.1406 115.859375Z" fill-rule="nonzero"/><path stroke="#ea4335" stroke-width="4.0" stroke-linecap="butt" d="M870.5 118.5L882.5 118.5" fill-rule="nonzero"/><path fill="#000000" d="M892.4844 127.0L892.4844 109.9375L898.0625 109.9375Q900.84375 109.9375 902.2344 111.09375Q903.6406 112.234375 903.6406 114.484375Q903.6406 115.671875 902.9531 116.59375Q902.28125 117.515625 901.1094 118.015625Q902.4844 118.40625 903.28125 119.5Q904.09375 120.578125 904.09375 122.078125Q904.09375 124.375 902.6094 125.6875Q901.125 127.0 898.40625 127.0L892.4844 127.0ZM894.7344 119.015625L894.7344 125.15625L898.4531 125.15625Q900.0156 125.15625 900.9219 124.34375Q901.8281 123.53125 901.8281 122.09375Q901.8281 119.015625 898.4844 119.015625L894.7344 119.015625ZM894.7344 117.21875L898.125 117.21875Q899.6094 117.21875 900.4844 116.484375Q901.375 115.734375 901.375 114.46875Q901.375 113.0625 900.5469 112.421875Q899.7344 111.78125 898.0625 111.78125L894.7344 111.78125L894.7344 117.21875ZM909.5 127.0L907.3281 127.0L907.3281 114.3125L909.5 114.3125L909.5 127.0ZM907.15625 110.953125Q907.15625 110.421875 907.46875 110.0625Q907.7969 109.703125 908.4219 109.703125Q909.0625 109.703125 909.3906 110.0625Q909.71875 110.421875 909.71875 110.953125Q909.71875 111.484375 909.3906 111.84375Q909.0625 112.1875 908.4219 112.1875Q907.7969 112.1875 907.46875 111.84375Q907.15625 111.484375 907.15625 110.953125ZM916.0781 111.25L916.0781 114.3125L918.4531 114.3125L918.4531 116.0L916.0781 116.0L916.0781 123.859375Q916.0781 124.625 916.3906 125.0Q916.71875 125.375 917.4844 125.375Q917.8594 125.375 918.5156 125.234375L918.5156 127.0Q917.65625 127.234375 916.84375 127.234375Q915.3906 127.234375 914.65625 126.359375Q913.9219 125.46875 913.9219 123.859375L913.9219 116.0L911.6094 116.0L911.6094 114.3125L913.9219 114.3125L913.9219 111.25L916.0781 111.25ZM925.65625 120.640625L919.9375 120.640625L919.9375 118.859375L925.65625 118.859375L925.65625 120.640625ZM939.375 124.015625L941.8125 114.3125L943.96875 114.3125L940.28125 127.0L938.53125 127.0L935.4375 117.390625L932.4375 127.0L930.6875 127.0L927.0 114.3125L929.15625 114.3125L931.65625 123.8125L934.6094 114.3125L936.3594 114.3125L939.375 124.015625ZM948.5 127.0L946.3281 127.0L946.3281 114.3125L948.5 114.3125L948.5 127.0ZM946.15625 110.953125Q946.15625 110.421875 946.46875 110.0625Q946.7969 109.703125 947.4219 109.703125Q948.0625 109.703125 948.3906 110.0625Q948.71875 110.421875 948.71875 110.953125Q948.71875 111.484375 948.3906 111.84375Q948.0625 112.1875 947.4219 112.1875Q946.7969 112.1875 946.46875 111.84375Q946.15625 111.484375 946.15625 110.953125ZM959.53125 123.640625Q959.53125 122.75 958.8594 122.265625Q958.2031 121.78125 956.5469 121.4375Q954.90625 121.078125 953.9375 120.59375Q952.96875 120.09375 952.5 119.421875Q952.0469 118.734375 952.0469 117.796875Q952.0469 116.234375 953.3594 115.15625Q954.6875 114.078125 956.7344 114.078125Q958.8906 114.078125 960.2344 115.203125Q961.5781 116.3125 961.5781 118.046875L959.3906 118.046875Q959.3906 117.15625 958.6406 116.515625Q957.8906 115.859375 956.7344 115.859375Q955.5469 115.859375 954.875 116.375Q954.21875 116.890625 954.21875 117.734375Q954.21875 118.515625 954.8281 118.921875Q955.4531 119.3125 957.0781 119.671875Q958.7031 120.03125 959.7031 120.546875Q960.71875 121.046875 961.2031 121.765625Q961.6875 122.46875 961.6875 123.484375Q961.6875 125.1875 960.3281 126.21875Q958.96875 127.234375 956.8125 127.234375Q955.28125 127.234375 954.1094 126.703125Q952.9375 126.15625 952.2656 125.1875Q951.6094 124.21875 951.6094 123.09375L953.78125 123.09375Q953.84375 124.1875 954.65625 124.828125Q955.46875 125.46875 956.8125 125.46875Q958.03125 125.46875 958.78125 124.96875Q959.53125 124.46875 959.53125 123.640625ZM969.40625 127.234375Q966.8281 127.234375 965.2031 125.546875Q963.59375 123.84375 963.59375 121.015625L963.59375 120.609375Q963.59375 118.71875 964.3125 117.25Q965.03125 115.765625 966.3281 114.921875Q967.625 114.078125 969.1406 114.078125Q971.6094 114.078125 972.96875 115.71875Q974.34375 117.34375 974.34375 120.375L974.34375 121.28125L965.7656 121.28125Q965.8125 123.15625 966.8594 124.3125Q967.90625 125.46875 969.5156 125.46875Q970.6719 125.46875 971.46875 125.0Q972.2656 124.53125 972.8594 123.75L974.1875 124.78125Q972.59375 127.234375 969.40625 127.234375ZM969.1406 115.859375Q967.8281 115.859375 966.9375 116.828125Q966.0469 117.78125 965.8281 119.5L972.1875 119.5L972.1875 119.328125Q972.09375 117.6875 971.2969 116.78125Q970.5 115.859375 969.1406 115.859375Z" fill-rule="nonzero"/><path fill="#000000" d="M324.73438 59.550003L316.29688 59.550003L316.29688 65.26875L326.20312 65.26875L326.20312 68.8L311.90625 68.8L311.90625 47.471878L326.17188 47.471878L326.17188 51.034378L316.29688 51.034378L316.29688 56.112503L324.73438 56.112503L324.73438 59.550003ZM334.65625 57.675003L337.32812 52.956253L341.85938 52.956253L337.34375 60.706253L342.04688 68.8L337.5 68.8L334.67188 63.815628L331.85938 68.8L327.3125 68.8L332.01562 60.706253L327.51562 52.956253L332.04688 52.956253L334.65625 57.675003ZM350.92188 69.09688Q347.4375 69.09688 345.25 66.95625Q343.0625 64.81563 343.0625 61.253128L343.0625 60.846878Q343.0625 58.456253 343.98438 56.581253Q344.90625 54.690628 346.59375 53.675003Q348.28125 52.659378 350.45312 52.659378Q353.70312 52.659378 355.5625 54.706253Q357.4375 56.753128 357.4375 60.518753L357.4375 62.253128L347.34375 62.253128Q347.54688 63.800003 348.57812 64.7375Q349.625 65.675 351.20312 65.675Q353.64062 65.675 355.01562 63.909378L357.10938 66.2375Q356.15625 67.58125 354.53125 68.34688Q352.90625 69.09688 350.92188 69.09688ZM350.4375 56.081253Q349.17188 56.081253 348.39062 56.940628Q347.60938 57.784378 347.39062 59.362503L353.28125 59.362503L353.28125 59.034378Q353.25 57.628128 352.51562 56.862503Q351.78125 56.081253 350.4375 56.081253ZM366.21875 65.675Q367.39062 65.675 368.125 65.03438Q368.85938 64.39375 368.89062 63.315628L372.85938 63.315628Q372.84375 64.925 371.96875 66.26875Q371.10938 67.6125 369.60938 68.3625Q368.10938 69.09688 366.29688 69.09688Q362.89062 69.09688 360.92188 66.94063Q358.96875 64.76875 358.96875 60.956253L358.96875 60.690628Q358.96875 57.018753 360.90625 54.846878Q362.85938 52.659378 366.26562 52.659378Q369.23438 52.659378 371.03125 54.346878Q372.82812 56.034378 372.85938 58.846878L368.89062 58.846878Q368.85938 57.628128 368.125 56.862503Q367.39062 56.081253 366.1875 56.081253Q364.70312 56.081253 363.95312 57.159378Q363.20312 58.237503 363.20312 60.659378L363.20312 61.096878Q363.20312 63.534378 363.9375 64.6125Q364.6875 65.675 366.21875 65.675ZM385.125 67.19063Q383.54688 69.09688 380.78125 69.09688Q378.23438 69.09688 376.89062 67.62813Q375.54688 66.15938 375.53125 63.331253L375.53125 52.956253L379.75 52.956253L379.75 63.190628Q379.75 65.65938 382.01562 65.65938Q384.17188 65.65938 384.96875 64.175L384.96875 52.956253L389.21875 52.956253L389.21875 68.8L385.23438 68.8L385.125 67.19063ZM397.6875 49.050003L397.6875 52.956253L400.40625 52.956253L400.40625 56.050003L397.6875 56.050003L397.6875 63.971878Q397.6875 64.84688 398.03125 65.2375Q398.375 65.6125 399.32812 65.6125Q400.03125 65.6125 400.5625 65.50313L400.5625 68.70625Q399.32812 69.09688 398.0 69.09688Q393.54688 69.09688 393.46875 64.59688L393.46875 56.050003L391.14062 56.050003L391.14062 52.956253L393.46875 52.956253L393.46875 49.050003L397.6875 49.050003ZM407.09375 68.8L402.84375 68.8L402.84375 52.956253L407.09375 52.956253L407.09375 68.8ZM402.59375 48.846878Q402.59375 47.893753 403.23438 47.284378Q403.875 46.659378 404.96875 46.659378Q406.04688 46.659378 406.6875 47.284378Q407.34375 47.893753 407.34375 48.846878Q407.34375 49.815628 406.6875 50.440628Q406.04688 51.050003 404.96875 51.050003Q403.90625 51.050003 403.25 50.440628Q402.59375 49.815628 402.59375 48.846878ZM409.96875 60.721878Q409.96875 58.362503 410.875 56.518753Q411.78125 54.675003 413.48438 53.675003Q415.20312 52.659378 417.45312 52.659378Q420.65625 52.659378 422.6875 54.628128Q424.71875 56.581253 424.95312 59.956253L424.98438 61.034378Q424.98438 64.69063 422.9375 66.89375Q420.90625 69.09688 417.46875 69.09688Q414.04688 69.09688 412.0 66.89375Q409.96875 64.69063 409.96875 60.925003L409.96875 60.721878ZM414.20312 61.034378Q414.20312 63.284378 415.04688 64.4875Q415.90625 65.675 417.48438 65.675Q419.01562 65.675 419.875 64.50313Q420.75 63.315628 420.75 60.721878Q420.75 58.518753 419.875 57.300003Q419.01562 56.081253 417.45312 56.081253Q415.90625 56.081253 415.04688 57.300003Q414.20312 58.503128 414.20312 61.034378ZM431.51562 52.956253L431.65625 54.784378Q433.35938 52.659378 436.20312 52.659378Q438.73438 52.659378 439.95312 54.143753Q441.1875 55.612503 441.21875 58.565628L441.21875 68.8L436.98438 68.8L436.98438 58.659378Q436.98438 57.315628 436.39062 56.706253Q435.8125 56.096878 434.45312 56.096878Q432.67188 56.096878 431.76562 57.628128L431.76562 68.8L427.53125 68.8L427.53125 52.956253L431.51562 52.956253ZM467.95312 51.034378L461.42188 51.034378L461.42188 68.8L457.03125 68.8L457.03125 51.034378L450.59375 51.034378L450.59375 47.471878L467.95312 47.471878L467.95312 51.034378ZM475.09375 68.8L470.84375 68.8L470.84375 52.956253L475.09375 52.956253L475.09375 68.8ZM470.59375 48.846878Q470.59375 47.893753 471.23438 47.284378Q471.875 46.659378 472.96875 46.659378Q474.04688 46.659378 474.6875 47.284378Q475.34375 47.893753 475.34375 48.846878Q475.34375 49.815628 474.6875 50.440628Q474.04688 51.050003 472.96875 51.050003Q471.90625 51.050003 471.25 50.440628Q470.59375 49.815628 470.59375 48.846878ZM482.59375 52.956253L482.73438 54.721878Q484.40625 52.659378 487.28125 52.659378Q490.34375 52.659378 491.48438 55.081253Q493.15625 52.659378 496.25 52.659378Q498.82812 52.659378 500.07812 54.159378Q501.34375 55.659378 501.34375 58.675003L501.34375 68.8L497.09375 68.8L497.09375 58.690628Q497.09375 57.346878 496.5625 56.721878Q496.04688 56.096878 494.70312 56.096878Q492.8125 56.096878 492.07812 57.909378L492.09375 68.8L487.85938 68.8L487.85938 58.706253Q487.85938 57.331253 487.3125 56.721878Q486.76562 56.096878 485.46875 56.096878Q483.67188 56.096878 482.85938 57.596878L482.85938 68.8L478.625 68.8L478.625 52.956253L482.59375 52.956253ZM511.92188 69.09688Q508.4375 69.09688 506.25 66.95625Q504.0625 64.81563 504.0625 61.253128L504.0625 60.846878Q504.0625 58.456253 504.98438 56.581253Q505.90625 54.690628 507.59375 53.675003Q509.28125 52.659378 511.45312 52.659378Q514.7031 52.659378 516.5625 54.706253Q518.4375 56.753128 518.4375 60.518753L518.4375 62.253128L508.34375 62.253128Q508.54688 63.800003 509.57812 64.7375Q510.625 65.675 512.2031 65.675Q514.6406 65.675 516.0156 63.909378L518.1094 66.2375Q517.15625 67.58125 515.53125 68.34688Q513.90625 69.09688 511.92188 69.09688ZM511.4375 56.081253Q510.17188 56.081253 509.39062 56.940628Q508.60938 57.784378 508.39062 59.362503L514.28125 59.362503L514.28125 59.034378Q514.25 57.628128 513.5156 56.862503Q512.78125 56.081253 511.4375 56.081253ZM527.8125 60.128128Q527.8125 56.768753 528.7031 53.737503Q529.6094 50.706253 531.34375 48.378128Q533.09375 46.034378 535.125 45.128128L535.9531 47.409378Q533.8125 48.987503 532.6094 52.300003Q531.40625 55.612503 531.40625 60.034378L531.40625 60.487503Q531.40625 64.925 532.59375 68.25313Q533.78125 71.58125 535.9531 73.22188L535.125 75.47188Q533.1406 74.56563 531.40625 72.3Q529.6875 70.05 528.78125 67.09688Q527.875 64.12813 527.8125 60.909378L527.8125 60.128128ZM543.5781 68.8L539.1875 68.8L539.1875 47.471878L543.5781 47.471878L543.5781 68.8ZM551.5156 52.956253L551.65625 54.784378Q553.3594 52.659378 556.2031 52.659378Q558.7344 52.659378 559.9531 54.143753Q561.1875 55.612503 561.21875 58.565628L561.21875 68.8L556.9844 68.8L556.9844 58.659378Q556.9844 57.315628 556.3906 56.706253Q555.8125 56.096878 554.4531 56.096878Q552.6719 56.096878 551.7656 57.628128L551.7656 68.8L547.53125 68.8L547.53125 52.956253L551.5156 52.956253ZM577.6406 47.471878L583.125 62.940628L588.5781 47.471878L594.34375 47.471878L594.34375 68.8L589.9375 68.8L589.9375 62.971878L590.375 52.909378L584.625 68.8L581.6094 68.8L575.8594 52.925003L576.2969 62.971878L576.2969 68.8L571.90625 68.8L571.90625 47.471878L577.6406 47.471878ZM602.09375 68.8L597.84375 68.8L597.84375 52.956253L602.09375 52.956253L602.09375 68.8ZM597.59375 48.846878Q597.59375 47.893753 598.2344 47.284378Q598.875 46.659378 599.96875 46.659378Q601.0469 46.659378 601.6875 47.284378Q602.34375 47.893753 602.34375 48.846878Q602.34375 49.815628 601.6875 50.440628Q601.0469 51.050003 599.96875 51.050003Q598.90625 51.050003 598.25 50.440628Q597.59375 49.815628 597.59375 48.846878ZM609.5156 52.956253L609.65625 54.784378Q611.3594 52.659378 614.2031 52.659378Q616.7344 52.659378 617.9531 54.143753Q619.1875 55.612503 619.21875 58.565628L619.21875 68.8L614.9844 68.8L614.9844 58.659378Q614.9844 57.315628 614.3906 56.706253Q613.8125 56.096878 612.4531 56.096878Q610.6719 56.096878 609.7656 57.628128L609.7656 68.8L605.53125 68.8L605.53125 52.956253L609.5156 52.956253ZM632.125 67.19063Q630.5469 69.09688 627.78125 69.09688Q625.2344 69.09688 623.8906 67.62813Q622.5469 66.15938 622.53125 63.331253L622.53125 52.956253L626.75 52.956253L626.75 63.190628Q626.75 65.65938 629.0156 65.65938Q631.1719 65.65938 631.96875 64.175L631.96875 52.956253L636.21875 52.956253L636.21875 68.8L632.2344 68.8L632.125 67.19063ZM644.6875 49.050003L644.6875 52.956253L647.40625 52.956253L647.40625 56.050003L644.6875 56.050003L644.6875 63.971878Q644.6875 64.84688 645.03125 65.2375Q645.375 65.6125 646.3281 65.6125Q647.03125 65.6125 647.5625 65.50313L647.5625 68.70625Q646.3281 69.09688 645.0 69.09688Q640.5469 69.09688 640.46875 64.59688L640.46875 56.050003L638.1406 56.050003L638.1406 52.956253L640.46875 52.956253L640.46875 49.050003L644.6875 49.050003ZM656.9219 69.09688Q653.4375 69.09688 651.25 66.95625Q649.0625 64.81563 649.0625 61.253128L649.0625 60.846878Q649.0625 58.456253 649.9844 56.581253Q650.90625 54.690628 652.59375 53.675003Q654.28125 52.659378 656.4531 52.659378Q659.7031 52.659378 661.5625 54.706253Q663.4375 56.753128 663.4375 60.518753L663.4375 62.253128L653.34375 62.253128Q653.5469 63.800003 654.5781 64.7375Q655.625 65.675 657.2031 65.675Q659.6406 65.675 661.0156 63.909378L663.1094 66.2375Q662.15625 67.58125 660.53125 68.34688Q658.90625 69.09688 656.9219 69.09688ZM656.4375 56.081253Q655.1719 56.081253 654.3906 56.940628Q653.6094 57.784378 653.3906 59.362503L659.28125 59.362503L659.28125 59.034378Q659.25 57.628128 658.5156 56.862503Q657.78125 56.081253 656.4375 56.081253ZM674.2031 64.425Q674.2031 63.643753 673.4375 63.206253Q672.6719 62.753128 670.96875 62.393753Q665.3125 61.206253 665.3125 57.596878Q665.3125 55.487503 667.0625 54.081253Q668.8125 52.659378 671.6406 52.659378Q674.6719 52.659378 676.46875 54.081253Q678.28125 55.503128 678.28125 57.768753L674.0469 57.768753Q674.0469 56.862503 673.4531 56.268753Q672.875 55.675003 671.625 55.675003Q670.5625 55.675003 669.96875 56.159378Q669.3906 56.643753 669.3906 57.393753Q669.3906 58.096878 670.0469 58.534378Q670.71875 58.956253 672.2969 59.268753Q673.8906 59.581253 674.96875 59.987503Q678.3281 61.206253 678.3281 64.2375Q678.3281 66.40938 676.46875 67.75313Q674.6094 69.09688 671.65625 69.09688Q669.6719 69.09688 668.125 68.39375Q666.5781 67.675 665.7031 66.44063Q664.8281 65.19063 664.8281 63.753128L668.8281 63.753128Q668.8906 64.89375 669.6719 65.50313Q670.4531 66.09688 671.75 66.09688Q672.96875 66.09688 673.5781 65.62813Q674.2031 65.15938 674.2031 64.425ZM687.9219 60.471878Q687.9219 63.768753 686.96875 66.83125Q686.0156 69.89375 684.21875 72.2375Q682.4375 74.58125 680.40625 75.47188L679.59375 73.22188Q681.6719 71.65938 682.8594 68.39375Q684.0625 65.12813 684.1094 60.878128L684.1094 60.096878Q684.1094 55.721878 682.90625 52.378128Q681.71875 49.034378 679.59375 47.362503L680.40625 45.128128Q682.40625 45.987503 684.15625 48.268753Q685.9219 50.534378 686.8906 53.550003Q687.875 56.565628 687.9219 59.800003L687.9219 60.471878ZM716.4219 58.612503Q716.4219 61.768753 715.3125 64.14375Q714.2031 66.51875 712.125 67.81563Q710.0469 69.09688 707.375 69.09688Q704.71875 69.09688 702.6406 67.83125Q700.5625 66.55 699.4219 64.19063Q698.28125 61.815628 698.2656 58.737503L698.2656 57.675003Q698.2656 54.534378 699.3906 52.143753Q700.53125 49.737503 702.59375 48.456253Q704.6719 47.175003 707.34375 47.175003Q710.0156 47.175003 712.0781 48.456253Q714.15625 49.737503 715.28125 52.143753Q716.4219 54.534378 716.4219 57.659378L716.4219 58.612503ZM711.96875 57.659378Q711.96875 54.300003 710.7656 52.565628Q709.5625 50.815628 707.34375 50.815628Q705.125 50.815628 703.9219 52.534378Q702.7344 54.253128 702.71875 57.581253L702.71875 58.612503Q702.71875 61.878128 703.90625 63.690628Q705.1094 65.4875 707.375 65.4875Q709.5781 65.4875 710.7656 63.753128Q711.9531 62.018753 711.96875 58.690628L711.96875 57.659378ZM723.5156 52.956253L723.65625 54.784378Q725.3594 52.659378 728.2031 52.659378Q730.7344 52.659378 731.9531 54.143753Q733.1875 55.612503 733.21875 58.565628L733.21875 68.8L728.9844 68.8L728.9844 58.659378Q728.9844 57.315628 728.3906 56.706253Q727.8125 56.096878 726.4531 56.096878Q724.6719 56.096878 723.7656 57.628128L723.7656 68.8L719.53125 68.8L719.53125 52.956253L723.5156 52.956253ZM754.96875 63.206253Q754.96875 61.956253 754.0781 61.300003Q753.2031 60.628128 750.9219 59.893753Q748.6406 59.143753 747.2969 58.425003Q743.6719 56.471878 743.6719 53.143753Q743.6719 51.409378 744.6406 50.065628Q745.625 48.706253 747.4375 47.940628Q749.2656 47.175003 751.53125 47.175003Q753.8281 47.175003 755.6094 48.003128Q757.3906 48.831253 758.375 50.346878Q759.375 51.846878 759.375 53.768753L754.9844 53.768753Q754.9844 52.300003 754.0625 51.487503Q753.1406 50.675003 751.46875 50.675003Q749.8594 50.675003 748.9531 51.362503Q748.0625 52.034378 748.0625 53.159378Q748.0625 54.190628 749.1094 54.893753Q750.15625 55.596878 752.2031 56.221878Q755.9531 57.346878 757.65625 59.018753Q759.375 60.690628 759.375 63.175003Q759.375 65.94063 757.28125 67.51875Q755.1875 69.09688 751.6406 69.09688Q749.1719 69.09688 747.15625 68.19063Q745.1406 67.28438 744.0781 65.72188Q743.0156 64.15938 743.0156 62.096878L747.4219 62.096878Q747.4219 65.62813 751.6406 65.62813Q753.2031 65.62813 754.0781 64.9875Q754.96875 64.34688 754.96875 63.206253ZM766.09375 68.8L761.84375 68.8L761.84375 52.956253L766.09375 52.956253L766.09375 68.8ZM761.59375 48.846878Q761.59375 47.893753 762.2344 47.284378Q762.875 46.659378 763.96875 46.659378Q765.0469 46.659378 765.6875 47.284378Q766.34375 47.893753 766.34375 48.846878Q766.34375 49.815628 765.6875 50.440628Q765.0469 51.050003 763.96875 51.050003Q762.90625 51.050003 762.25 50.440628Q761.59375 49.815628 761.59375 48.846878ZM773.5156 52.956253L773.65625 54.784378Q775.3594 52.659378 778.2031 52.659378Q780.7344 52.659378 781.9531 54.143753Q783.1875 55.612503 783.21875 58.565628L783.21875 68.8L778.9844 68.8L778.9844 58.659378Q778.9844 57.315628 778.3906 56.706253Q777.8125 56.096878 776.4531 56.096878Q774.6719 56.096878 773.7656 57.628128L773.7656 68.8L769.53125 68.8L769.53125 52.956253L773.5156 52.956253ZM786.0156 60.753128Q786.0156 57.112503 787.75 54.893753Q789.4844 52.659378 792.4219 52.659378Q795.03125 52.659378 796.4844 54.440628L796.65625 52.956253L800.5 52.956253L800.5 68.26875Q800.5 70.34688 799.5469 71.87813Q798.6094 73.425 796.8906 74.22188Q795.1875 75.03438 792.875 75.03438Q791.1406 75.03438 789.4844 74.33125Q787.8281 73.64375 786.9844 72.55L788.8594 69.97188Q790.4375 71.7375 792.6875 71.7375Q794.375 71.7375 795.3125 70.83125Q796.25 69.94063 796.25 68.28438L796.25 67.44063Q794.78125 69.09688 792.3906 69.09688Q789.5469 69.09688 787.78125 66.8625Q786.0156 64.62813 786.0156 60.940628L786.0156 60.753128ZM790.25 61.065628Q790.25 63.221878 791.1094 64.44063Q791.96875 65.65938 793.4844 65.65938Q795.4219 65.65938 796.25 64.22188L796.25 57.550003Q795.40625 56.096878 793.5156 56.096878Q791.9844 56.096878 791.1094 57.346878Q790.25 58.596878 790.25 61.065628ZM808.09375 68.8L803.84375 68.8L803.84375 46.300003L808.09375 46.300003L808.09375 68.8ZM818.9219 69.09688Q815.4375 69.09688 813.25 66.95625Q811.0625 64.81563 811.0625 61.253128L811.0625 60.846878Q811.0625 58.456253 811.9844 56.581253Q812.90625 54.690628 814.59375 53.675003Q816.28125 52.659378 818.4531 52.659378Q821.7031 52.659378 823.5625 54.706253Q825.4375 56.753128 825.4375 60.518753L825.4375 62.253128L815.34375 62.253128Q815.5469 63.800003 816.5781 64.7375Q817.625 65.675 819.2031 65.675Q821.6406 65.675 823.0156 63.909378L825.1094 66.2375Q824.15625 67.58125 822.53125 68.34688Q820.90625 69.09688 818.9219 69.09688ZM818.4375 56.081253Q817.1719 56.081253 816.3906 56.940628Q815.6094 57.784378 815.3906 59.362503L821.28125 59.362503L821.28125 59.034378Q821.25 57.628128 820.5156 56.862503Q819.78125 56.081253 818.4375 56.081253ZM851.78125 66.09688Q850.59375 67.51875 848.4219 68.31563Q846.25 69.09688 843.625 69.09688Q840.8594 69.09688 838.7656 67.89375Q836.6719 66.675 835.53125 64.37813Q834.40625 62.081253 834.375 58.971878L834.375 57.518753Q834.375 54.331253 835.4531 52.003128Q836.53125 49.659378 838.5625 48.425003Q840.59375 47.175003 843.3125 47.175003Q847.1094 47.175003 849.25 48.987503Q851.3906 50.800003 851.78125 54.253128L847.5 54.253128Q847.2031 52.425003 846.2031 51.581253Q845.2031 50.721878 843.4375 50.721878Q841.2031 50.721878 840.03125 52.409378Q838.8594 54.096878 838.84375 57.425003L838.84375 58.784378Q838.84375 62.128128 840.1094 63.846878Q841.3906 65.56563 843.8594 65.56563Q846.3281 65.56563 847.3906 64.50313L847.3906 60.831253L843.3906 60.831253L843.3906 57.596878L851.78125 57.596878L851.78125 66.09688ZM859.2969 61.284378L859.2969 68.8L854.90625 68.8L854.90625 47.471878L863.21875 47.471878Q865.625 47.471878 867.4531 48.346878Q869.28125 49.221878 870.25 50.846878Q871.2344 52.471878 871.2344 54.534378Q871.2344 57.659378 869.09375 59.471878Q866.9531 61.284378 863.15625 61.284378L859.2969 61.284378ZM859.2969 57.721878L863.21875 57.721878Q864.96875 57.721878 865.875 56.909378Q866.7969 56.081253 866.7969 54.565628Q866.7969 52.987503 865.875 52.034378Q864.9531 51.065628 863.3281 51.034378L859.2969 51.034378L859.2969 57.721878ZM890.0469 47.471878L890.0469 61.518753Q890.0469 65.01875 887.8594 67.06563Q885.6719 69.09688 881.875 69.09688Q878.1406 69.09688 875.9375 67.12813Q873.75 65.14375 873.7031 61.675003L873.7031 47.471878L878.09375 47.471878L878.09375 61.550003Q878.09375 63.643753 879.09375 64.6125Q880.09375 65.56563 881.875 65.56563Q885.5781 65.56563 885.6406 61.659378L885.6406 47.471878L890.0469 47.471878ZM893.84375 66.72188Q893.84375 65.70625 894.5156 65.08125Q895.2031 64.45625 896.2344 64.45625Q897.28125 64.45625 897.9531 65.08125Q898.6406 65.70625 898.6406 66.72188Q898.6406 67.72188 897.9531 68.34688Q897.28125 68.95625 896.2344 68.95625Q895.1875 68.95625 894.5156 68.34688Q893.84375 67.72188 893.84375 66.72188ZM893.84375 54.721878Q893.84375 53.706253 894.5156 53.081253Q895.2031 52.456253 896.2344 52.456253Q897.28125 52.456253 897.9531 53.081253Q898.6406 53.706253 898.6406 54.721878Q898.6406 55.721878 897.9531 56.346878Q897.28125 56.956253 896.2344 56.956253Q895.1875 56.956253 894.5156 56.346878Q893.84375 55.721878 893.84375 54.721878ZM908.90625 68.8L908.90625 47.471878L916.375 47.471878Q920.25 47.471878 922.25 48.956253Q924.2656 50.440628 924.2656 53.315628Q924.2656 54.878128 923.4531 56.081253Q922.65625 57.268753 921.21875 57.831253Q922.8594 58.237503 923.7969 59.487503Q924.75 60.721878 924.75 62.534378Q924.75 65.6125 922.78125 67.19063Q920.8281 68.76875 917.2031 68.8L908.90625 68.8ZM913.2969 59.518753L913.2969 65.26875L917.0625 65.26875Q918.6094 65.26875 919.4844 64.53438Q920.3594 63.784378 920.3594 62.487503Q920.3594 59.550003 917.3281 59.518753L913.2969 59.518753ZM913.2969 56.409378L916.5469 56.409378Q919.875 56.346878 919.875 53.753128Q919.875 52.300003 919.03125 51.675003Q918.1875 51.034378 916.375 51.034378L913.2969 51.034378L913.2969 56.409378ZM936.8125 68.8Q936.5156 68.22188 936.3906 67.37813Q934.84375 69.09688 932.3906 69.09688Q930.0625 69.09688 928.53125 67.75313Q927.0 66.39375 927.0 64.34688Q927.0 61.831253 928.8594 60.487503Q930.7344 59.128128 934.2656 59.112503L936.2031 59.112503L936.2031 58.206253Q936.2031 57.112503 935.6406 56.456253Q935.0781 55.784378 933.8594 55.784378Q932.7969 55.784378 932.1875 56.300003Q931.5781 56.815628 931.5781 57.706253L927.34375 57.706253Q927.34375 56.331253 928.1875 55.159378Q929.0469 53.987503 930.59375 53.331253Q932.15625 52.659378 934.09375 52.659378Q937.0156 52.659378 938.7344 54.128128Q940.4531 55.596878 940.4531 58.268753L940.4531 65.14375Q940.46875 67.39375 941.09375 68.55L941.09375 68.8L936.8125 68.8ZM933.3125 65.8625Q934.25 65.8625 935.03125 65.44063Q935.8281 65.01875 936.2031 64.31563L936.2031 61.596878L934.625 61.596878Q931.4531 61.596878 931.25 63.784378L931.2344 64.03438Q931.2344 64.83125 931.78125 65.34688Q932.34375 65.8625 933.3125 65.8625ZM952.2031 64.425Q952.2031 63.643753 951.4375 63.206253Q950.6719 62.753128 948.96875 62.393753Q943.3125 61.206253 943.3125 57.596878Q943.3125 55.487503 945.0625 54.081253Q946.8125 52.659378 949.6406 52.659378Q952.6719 52.659378 954.46875 54.081253Q956.28125 55.503128 956.28125 57.768753L952.0469 57.768753Q952.0469 56.862503 951.4531 56.268753Q950.875 55.675003 949.625 55.675003Q948.5625 55.675003 947.96875 56.159378Q947.3906 56.643753 947.3906 57.393753Q947.3906 58.096878 948.0469 58.534378Q948.71875 58.956253 950.2969 59.268753Q951.8906 59.581253 952.96875 59.987503Q956.3281 61.206253 956.3281 64.2375Q956.3281 66.40938 954.46875 67.75313Q952.6094 69.09688 949.65625 69.09688Q947.6719 69.09688 946.125 68.39375Q944.5781 67.675 943.7031 66.44063Q942.8281 65.19063 942.8281 63.753128L946.8281 63.753128Q946.8906 64.89375 947.6719 65.50313Q948.4531 66.09688 949.75 66.09688Q950.96875 66.09688 951.5781 65.62813Q952.2031 65.15938 952.2031 64.425ZM965.9219 69.09688Q962.4375 69.09688 960.25 66.95625Q958.0625 64.81563 958.0625 61.253128L958.0625 60.846878Q958.0625 58.456253 958.9844 56.581253Q959.90625 54.690628 961.59375 53.675003Q963.28125 52.659378 965.4531 52.659378Q968.7031 52.659378 970.5625 54.706253Q972.4375 56.753128 972.4375 60.518753L972.4375 62.253128L962.34375 62.253128Q962.5469 63.800003 963.5781 64.7375Q964.625 65.675 966.2031 65.675Q968.6406 65.675 970.0156 63.909378L972.1094 66.2375Q971.15625 67.58125 969.53125 68.34688Q967.90625 69.09688 965.9219 69.09688ZM965.4375 56.081253Q964.1719 56.081253 963.3906 56.940628Q962.6094 57.784378 962.3906 59.362503L968.28125 59.362503L968.28125 59.034378Q968.25 57.628128 967.5156 56.862503Q966.78125 56.081253 965.4375 56.081253ZM979.09375 68.8L974.84375 68.8L974.84375 46.300003L979.09375 46.300003L979.09375 68.8ZM987.09375 68.8L982.84375 68.8L982.84375 52.956253L987.09375 52.956253L987.09375 68.8ZM982.59375 48.846878Q982.59375 47.893753 983.2344 47.284378Q983.875 46.659378 984.96875 46.659378Q986.0469 46.659378 986.6875 47.284378Q987.34375 47.893753 987.34375 48.846878Q987.34375 49.815628 986.6875 50.440628Q986.0469 51.050003 984.96875 51.050003Q983.90625 51.050003 983.25 50.440628Q982.59375 49.815628 982.59375 48.846878ZM994.5156 52.956253L994.65625 54.784378Q996.3594 52.659378 999.2031 52.659378Q1001.7344 52.659378 1002.9531 54.143753Q1004.1875 55.612503 1004.21875 58.565628L1004.21875 68.8L999.9844 68.8L999.9844 58.659378Q999.9844 57.315628 999.3906 56.706253Q998.8125 56.096878 997.4531 56.096878Q995.6719 56.096878 994.7656 57.628128L994.7656 68.8L990.53125 68.8L990.53125 52.956253L994.5156 52.956253ZM1014.9219 69.09688Q1011.4375 69.09688 1009.25 66.95625Q1007.0625 64.81563 1007.0625 61.253128L1007.0625 60.846878Q1007.0625 58.456253 1007.9844 56.581253Q1008.90625 54.690628 1010.59375 53.675003Q1012.28125 52.659378 1014.4531 52.659378Q1017.7031 52.659378 1019.5625 54.706253Q1021.4375 56.753128 1021.4375 60.518753L1021.4375 62.253128L1011.34375 62.253128Q1011.5469 63.800003 1012.5781 64.7375Q1013.625 65.675 1015.2031 65.675Q1017.6406 65.675 1019.0156 63.909378L1021.1094 66.2375Q1020.15625 67.58125 1018.53125 68.34688Q1016.90625 69.09688 1014.9219 69.09688ZM1014.4375 56.081253Q1013.1719 56.081253 1012.3906 56.940628Q1011.6094 57.784378 1011.3906 59.362503L1017.28125 59.362503L1017.28125 59.034378Q1017.25 57.628128 1016.5156 56.862503Q1015.78125 56.081253 1014.4375 56.081253ZM1036.5625 63.628128L1039.5 52.956253L1043.9219 52.956253L1038.5781 68.8L1034.5312 68.8L1029.1875 52.956253L1033.6094 52.956253L1036.5625 63.628128ZM1054.2031 64.425Q1054.2031 63.643753 1053.4375 63.206253Q1052.6719 62.753128 1050.9688 62.393753Q1045.3125 61.206253 1045.3125 57.596878Q1045.3125 55.487503 1047.0625 54.081253Q1048.8125 52.659378 1051.6406 52.659378Q1054.6719 52.659378 1056.4688 54.081253Q1058.2812 55.503128 1058.2812 57.768753L1054.0469 57.768753Q1054.0469 56.862503 1053.4531 56.268753Q1052.875 55.675003 1051.625 55.675003Q1050.5625 55.675003 1049.9688 56.159378Q1049.3906 56.643753 1049.3906 57.393753Q1049.3906 58.096878 1050.0469 58.534378Q1050.7188 58.956253 1052.2969 59.268753Q1053.8906 59.581253 1054.9688 59.987503Q1058.3281 61.206253 1058.3281 64.2375Q1058.3281 66.40938 1056.4688 67.75313Q1054.6094 69.09688 1051.6562 69.09688Q1049.6719 69.09688 1048.125 68.39375Q1046.5781 67.675 1045.7031 66.44063Q1044.8281 65.19063 1044.8281 63.753128L1048.8281 63.753128Q1048.8906 64.89375 1049.6719 65.50313Q1050.4531 66.09688 1051.75 66.09688Q1052.9688 66.09688 1053.5781 65.62813Q1054.2031 65.15938 1054.2031 64.425ZM1060.8438 66.72188Q1060.8438 65.70625 1061.5156 65.08125Q1062.2031 64.45625 1063.2344 64.45625Q1064.2812 64.45625 1064.9531 65.08125Q1065.6406 65.70625 1065.6406 66.72188Q1065.6406 67.72188 1064.9531 68.34688Q1064.2812 68.95625 1063.2344 68.95625Q1062.1875 68.95625 1061.5156 68.34688Q1060.8438 67.72188 1060.8438 66.72188ZM1076.9062 68.8L1076.9062 47.471878L1084.375 47.471878Q1088.25 47.471878 1090.25 48.956253Q1092.2656 50.440628 1092.2656 53.315628Q1092.2656 54.878128 1091.4531 56.081253Q1090.6562 57.268753 1089.2188 57.831253Q1090.8594 58.237503 1091.7969 59.487503Q1092.75 60.721878 1092.75 62.534378Q1092.75 65.6125 1090.7812 67.19063Q1088.8281 68.76875 1085.2031 68.8L1076.9062 68.8ZM1081.2969 59.518753L1081.2969 65.26875L1085.0625 65.26875Q1086.6094 65.26875 1087.4844 64.53438Q1088.3594 63.784378 1088.3594 62.487503Q1088.3594 59.550003 1085.3281 59.518753L1081.2969 59.518753ZM1081.2969 56.409378L1084.5469 56.409378Q1087.875 56.346878 1087.875 53.753128Q1087.875 52.300003 1087.0312 51.675003Q1086.1875 51.034378 1084.375 51.034378L1081.2969 51.034378L1081.2969 56.409378ZM1100.0938 68.8L1095.8438 68.8L1095.8438 52.956253L1100.0938 52.956253L1100.0938 68.8ZM1095.5938 48.846878Q1095.5938 47.893753 1096.2344 47.284378Q1096.875 46.659378 1097.9688 46.659378Q1099.0469 46.659378 1099.6875 47.284378Q1100.3438 47.893753 1100.3438 48.846878Q1100.3438 49.815628 1099.6875 50.440628Q1099.0469 51.050003 1097.9688 51.050003Q1096.9062 51.050003 1096.25 50.440628Q1095.5938 49.815628 1095.5938 48.846878ZM1108.6875 49.050003L1108.6875 52.956253L1111.4062 52.956253L1111.4062 56.050003L1108.6875 56.050003L1108.6875 63.971878Q1108.6875 64.84688 1109.0312 65.2375Q1109.375 65.6125 1110.3281 65.6125Q1111.0312 65.6125 1111.5625 65.50313L1111.5625 68.70625Q1110.3281 69.09688 1109.0 69.09688Q1104.5469 69.09688 1104.4688 64.59688L1104.4688 56.050003L1102.1406 56.050003L1102.1406 52.956253L1104.4688 52.956253L1104.4688 49.050003L1108.6875 49.050003ZM1121.8594 61.378128L1113.6094 61.378128L1113.6094 57.956253L1121.8594 57.956253L1121.8594 61.378128ZM1142.5156 62.643753L1145.3906 47.471878L1149.7656 47.471878L1145.0312 68.8L1140.6094 68.8L1137.1406 54.534378L1133.6719 68.8L1129.25 68.8L1124.5156 47.471878L1128.8906 47.471878L1131.7812 62.612503L1135.2969 47.471878L1139.0156 47.471878L1142.5156 62.643753ZM1156.0938 68.8L1151.8438 68.8L1151.8438 52.956253L1156.0938 52.956253L1156.0938 68.8ZM1151.5938 48.846878Q1151.5938 47.893753 1152.2344 47.284378Q1152.875 46.659378 1153.9688 46.659378Q1155.0469 46.659378 1155.6875 47.284378Q1156.3438 47.893753 1156.3438 48.846878Q1156.3438 49.815628 1155.6875 50.440628Q1155.0469 51.050003 1153.9688 51.050003Q1152.9062 51.050003 1152.25 50.440628Q1151.5938 49.815628 1151.5938 48.846878ZM1168.2031 64.425Q1168.2031 63.643753 1167.4375 63.206253Q1166.6719 62.753128 1164.9688 62.393753Q1159.3125 61.206253 1159.3125 57.596878Q1159.3125 55.487503 1161.0625 54.081253Q1162.8125 52.659378 1165.6406 52.659378Q1168.6719 52.659378 1170.4688 54.081253Q1172.2812 55.503128 1172.2812 57.768753L1168.0469 57.768753Q1168.0469 56.862503 1167.4531 56.268753Q1166.875 55.675003 1165.625 55.675003Q1164.5625 55.675003 1163.9688 56.159378Q1163.3906 56.643753 1163.3906 57.393753Q1163.3906 58.096878 1164.0469 58.534378Q1164.7188 58.956253 1166.2969 59.268753Q1167.8906 59.581253 1168.9688 59.987503Q1172.3281 61.206253 1172.3281 64.2375Q1172.3281 66.40938 1170.4688 67.75313Q1168.6094 69.09688 1165.6562 69.09688Q1163.6719 69.09688 1162.125 68.39375Q1160.5781 67.675 1159.7031 66.44063Q1158.8281 65.19063 1158.8281 63.753128L1162.8281 63.753128Q1162.8906 64.89375 1163.6719 65.50313Q1164.4531 66.09688 1165.75 66.09688Q1166.9688 66.09688 1167.5781 65.62813Q1168.2031 65.15938 1168.2031 64.425ZM1181.9219 69.09688Q1178.4375 69.09688 1176.25 66.95625Q1174.0625 64.81563 1174.0625 61.253128L1174.0625 60.846878Q1174.0625 58.456253 1174.9844 56.581253Q1175.9062 54.690628 1177.5938 53.675003Q1179.2812 52.659378 1181.4531 52.659378Q1184.7031 52.659378 1186.5625 54.706253Q1188.4375 56.753128 1188.4375 60.518753L1188.4375 62.253128L1178.3438 62.253128Q1178.5469 63.800003 1179.5781 64.7375Q1180.625 65.675 1182.2031 65.675Q1184.6406 65.675 1186.0156 63.909378L1188.1094 66.2375Q1187.1562 67.58125 1185.5312 68.34688Q1183.9062 69.09688 1181.9219 69.09688ZM1181.4375 56.081253Q1180.1719 56.081253 1179.3906 56.940628Q1178.6094 57.784378 1178.3906 59.362503L1184.2812 59.362503L1184.2812 59.034378Q1184.25 57.628128 1183.5156 56.862503Q1182.7812 56.081253 1181.4375 56.081253ZM1202.5781 68.8L1198.1875 68.8L1198.1875 47.471878L1202.5781 47.471878L1202.5781 68.8ZM1210.5938 52.956253L1210.7344 54.721878Q1212.4062 52.659378 1215.2812 52.659378Q1218.3438 52.659378 1219.4844 55.081253Q1221.1562 52.659378 1224.25 52.659378Q1226.8281 52.659378 1228.0781 54.159378Q1229.3438 55.659378 1229.3438 58.675003L1229.3438 68.8L1225.0938 68.8L1225.0938 58.690628Q1225.0938 57.346878 1224.5625 56.721878Q1224.0469 56.096878 1222.7031 56.096878Q1220.8125 56.096878 1220.0781 57.909378L1220.0938 68.8L1215.8594 68.8L1215.8594 58.706253Q1215.8594 57.331253 1215.3125 56.721878Q1214.7656 56.096878 1213.4688 56.096878Q1211.6719 56.096878 1210.8594 57.596878L1210.8594 68.8L1206.625 68.8L1206.625 52.956253L1210.5938 52.956253ZM1246.8906 61.018753Q1246.8906 64.69063 1245.2188 66.89375Q1243.5625 69.09688 1240.7344 69.09688Q1238.3438 69.09688 1236.8594 67.425L1236.8594 74.89375L1232.625 74.89375L1232.625 52.956253L1236.5469 52.956253L1236.7031 54.503128Q1238.2344 52.659378 1240.7188 52.659378Q1243.6406 52.659378 1245.2656 54.831253Q1246.8906 56.987503 1246.8906 60.800003L1246.8906 61.018753ZM1242.6562 60.706253Q1242.6562 58.503128 1241.875 57.300003Q1241.0938 56.096878 1239.5938 56.096878Q1237.6094 56.096878 1236.8594 57.628128L1236.8594 64.1125Q1237.6406 65.675 1239.625 65.675Q1242.6562 65.675 1242.6562 60.706253ZM1254.0938 68.8L1249.8438 68.8L1249.8438 46.300003L1254.0938 46.300003L1254.0938 68.8ZM1264.9219 69.09688Q1261.4375 69.09688 1259.25 66.95625Q1257.0625 64.81563 1257.0625 61.253128L1257.0625 60.846878Q1257.0625 58.456253 1257.9844 56.581253Q1258.9062 54.690628 1260.5938 53.675003Q1262.2812 52.659378 1264.4531 52.659378Q1267.7031 52.659378 1269.5625 54.706253Q1271.4375 56.753128 1271.4375 60.518753L1271.4375 62.253128L1261.3438 62.253128Q1261.5469 63.800003 1262.5781 64.7375Q1263.625 65.675 1265.2031 65.675Q1267.6406 65.675 1269.0156 63.909378L1271.1094 66.2375Q1270.1562 67.58125 1268.5312 68.34688Q1266.9062 69.09688 1264.9219 69.09688ZM1264.4375 56.081253Q1263.1719 56.081253 1262.3906 56.940628Q1261.6094 57.784378 1261.3906 59.362503L1267.2812 59.362503L1267.2812 59.034378Q1267.25 57.628128 1266.5156 56.862503Q1265.7812 56.081253 1264.4375 56.081253ZM1277.5938 52.956253L1277.7344 54.721878Q1279.4062 52.659378 1282.2812 52.659378Q1285.3438 52.659378 1286.4844 55.081253Q1288.1562 52.659378 1291.25 52.659378Q1293.8281 52.659378 1295.0781 54.159378Q1296.3438 55.659378 1296.3438 58.675003L1296.3438 68.8L1292.0938 68.8L1292.0938 58.690628Q1292.0938 57.346878 1291.5625 56.721878Q1291.0469 56.096878 1289.7031 56.096878Q1287.8125 56.096878 1287.0781 57.909378L1287.0938 68.8L1282.8594 68.8L1282.8594 58.706253Q1282.8594 57.331253 1282.3125 56.721878Q1281.7656 56.096878 1280.4688 56.096878Q1278.6719 56.096878 1277.8594 57.596878L1277.8594 68.8L1273.625 68.8L1273.625 52.956253L1277.5938 52.956253ZM1306.9219 69.09688Q1303.4375 69.09688 1301.25 66.95625Q1299.0625 64.81563 1299.0625 61.253128L1299.0625 60.846878Q1299.0625 58.456253 1299.9844 56.581253Q1300.9062 54.690628 1302.5938 53.675003Q1304.2812 52.659378 1306.4531 52.659378Q1309.7031 52.659378 1311.5625 54.706253Q1313.4375 56.753128 1313.4375 60.518753L1313.4375 62.253128L1303.3438 62.253128Q1303.5469 63.800003 1304.5781 64.7375Q1305.625 65.675 1307.2031 65.675Q1309.6406 65.675 1311.0156 63.909378L1313.1094 66.2375Q1312.1562 67.58125 1310.5312 68.34688Q1308.9062 69.09688 1306.9219 69.09688ZM1306.4375 56.081253Q1305.1719 56.081253 1304.3906 56.940628Q1303.6094 57.784378 1303.3906 59.362503L1309.2812 59.362503L1309.2812 59.034378Q1309.25 57.628128 1308.5156 56.862503Q1307.7812 56.081253 1306.4375 56.081253ZM1319.5156 52.956253L1319.6562 54.784378Q1321.3594 52.659378 1324.2031 52.659378Q1326.7344 52.659378 1327.9531 54.143753Q1329.1875 55.612503 1329.2188 58.565628L1329.2188 68.8L1324.9844 68.8L1324.9844 58.659378Q1324.9844 57.315628 1324.3906 56.706253Q1323.8125 56.096878 1322.4531 56.096878Q1320.6719 56.096878 1319.7656 57.628128L1319.7656 68.8L1315.5312 68.8L1315.5312 52.956253L1319.5156 52.956253ZM1337.6875 49.050003L1337.6875 52.956253L1340.4062 52.956253L1340.4062 56.050003L1337.6875 56.050003L1337.6875 63.971878Q1337.6875 64.84688 1338.0312 65.2375Q1338.375 65.6125 1339.3281 65.6125Q1340.0312 65.6125 1340.5625 65.50313L1340.5625 68.70625Q1339.3281 69.09688 1338.0 69.09688Q1333.5469 69.09688 1333.4688 64.59688L1333.4688 56.050003L1331.1406 56.050003L1331.1406 52.956253L1333.4688 52.956253L1333.4688 49.050003L1337.6875 49.050003ZM1351.8125 68.8Q1351.5156 68.22188 1351.3906 67.37813Q1349.8438 69.09688 1347.3906 69.09688Q1345.0625 69.09688 1343.5312 67.75313Q1342.0 66.39375 1342.0 64.34688Q1342.0 61.831253 1343.8594 60.487503Q1345.7344 59.128128 1349.2656 59.112503L1351.2031 59.112503L1351.2031 58.206253Q1351.2031 57.112503 1350.6406 56.456253Q1350.0781 55.784378 1348.8594 55.784378Q1347.7969 55.784378 1347.1875 56.300003Q1346.5781 56.815628 1346.5781 57.706253L1342.3438 57.706253Q1342.3438 56.331253 1343.1875 55.159378Q1344.0469 53.987503 1345.5938 53.331253Q1347.1562 52.659378 1349.0938 52.659378Q1352.0156 52.659378 1353.7344 54.128128Q1355.4531 55.596878 1355.4531 58.268753L1355.4531 65.14375Q1355.4688 67.39375 1356.0938 68.55L1356.0938 68.8L1351.8125 68.8ZM1348.3125 65.8625Q1349.25 65.8625 1350.0312 65.44063Q1350.8281 65.01875 1351.2031 64.31563L1351.2031 61.596878L1349.625 61.596878Q1346.4531 61.596878 1346.25 63.784378L1346.2344 64.03438Q1346.2344 64.83125 1346.7812 65.34688Q1347.3438 65.8625 1348.3125 65.8625ZM1363.6875 49.050003L1363.6875 52.956253L1366.4062 52.956253L1366.4062 56.050003L1363.6875 56.050003L1363.6875 63.971878Q1363.6875 64.84688 1364.0312 65.2375Q1364.375 65.6125 1365.3281 65.6125Q1366.0312 65.6125 1366.5625 65.50313L1366.5625 68.70625Q1365.3281 69.09688 1364.0 69.09688Q1359.5469 69.09688 1359.4688 64.59688L1359.4688 56.050003L1357.1406 56.050003L1357.1406 52.956253L1359.4688 52.956253L1359.4688 49.050003L1363.6875 49.050003ZM1373.0938 68.8L1368.8438 68.8L1368.8438 52.956253L1373.0938 52.956253L1373.0938 68.8ZM1368.5938 48.846878Q1368.5938 47.893753 1369.2344 47.284378Q1369.875 46.659378 1370.9688 46.659378Q1372.0469 46.659378 1372.6875 47.284378Q1373.3438 47.893753 1373.3438 48.846878Q1373.3438 49.815628 1372.6875 50.440628Q1372.0469 51.050003 1370.9688 51.050003Q1369.9062 51.050003 1369.25 50.440628Q1368.5938 49.815628 1368.5938 48.846878ZM1375.9688 60.721878Q1375.9688 58.362503 1376.875 56.518753Q1377.7812 54.675003 1379.4844 53.675003Q1381.2031 52.659378 1383.4531 52.659378Q1386.6562 52.659378 1388.6875 54.628128Q1390.7188 56.581253 1390.9531 59.956253L1390.9844 61.034378Q1390.9844 64.69063 1388.9375 66.89375Q1386.9062 69.09688 1383.4688 69.09688Q1380.0469 69.09688 1378.0 66.89375Q1375.9688 64.69063 1375.9688 60.925003L1375.9688 60.721878ZM1380.2031 61.034378Q1380.2031 63.284378 1381.0469 64.4875Q1381.9062 65.675 1383.4844 65.675Q1385.0156 65.675 1385.875 64.50313Q1386.75 63.315628 1386.75 60.721878Q1386.75 58.518753 1385.875 57.300003Q1385.0156 56.081253 1383.4531 56.081253Q1381.9062 56.081253 1381.0469 57.300003Q1380.2031 58.503128 1380.2031 61.034378ZM1397.5156 52.956253L1397.6562 54.784378Q1399.3594 52.659378 1402.2031 52.659378Q1404.7344 52.659378 1405.9531 54.143753Q1407.1875 55.612503 1407.2188 58.565628L1407.2188 68.8L1402.9844 68.8L1402.9844 58.659378Q1402.9844 57.315628 1402.3906 56.706253Q1401.8125 56.096878 1400.4531 56.096878Q1398.6719 56.096878 1397.7656 57.628128L1397.7656 68.8L1393.5312 68.8L1393.5312 52.956253L1397.5156 52.956253Z" fill-rule="nonzero"/></svg>